<?xml version="1.0" standalone="no"?>
<!DOCTYPE svg PUBLIC "-//W3C//DTD SVG 20010904//EN"
 "http://www.w3.org/TR/2001/REC-SVG-20010904/DTD/svg10.dtd">
<svg version="1.0" xmlns="http://www.w3.org/2000/svg"
 width="512.000000pt" height="512.000000pt" viewBox="0 0 512.000000 512.000000"
 preserveAspectRatio="xMidYMid meet">
<metadata>
Created by potrace 1.14, written by Peter Selinger 2001-2017
</metadata>
<g transform="translate(0.000000,512.000000) scale(0.100000,-0.100000)"
fill="#000000" stroke="none">
<path d="M2407 5114 c-3 -3 -32 -8 -64 -9 -32 -2 -60 -4 -63 -5 -3 -2 -8 -2
-12 -1 -5 0 -8 -3 -8 -7 0 -4 -15 -7 -32 -7 -18 1 -37 -1 -43 -5 -5 -4 -23
-10 -40 -13 -79 -14 -101 -20 -117 -28 -10 -5 -18 -7 -18 -4 0 3 -13 -1 -30
-10 -16 -8 -31 -15 -32 -14 -5 2 -93 -25 -98 -31 -3 -3 -23 -11 -45 -19 -68
-24 -222 -101 -257 -130 -10 -8 -18 -11 -18 -7 0 4 -15 -4 -33 -18 -19 -15
-39 -26 -45 -26 -7 0 -12 -5 -12 -11 0 -5 -5 -7 -10 -4 -6 3 -13 -1 -16 -9 -3
-9 -11 -16 -18 -16 -6 0 -24 -15 -41 -32 l-30 -31 35 17 c19 9 46 23 60 30 14
7 39 17 55 21 44 12 45 12 50 15 3 1 10 4 15 5 6 1 11 3 13 5 1 1 9 3 17 5 8
2 30 8 48 14 17 5 32 7 32 4 0 -3 6 0 13 6 10 8 14 7 14 -4 0 -8 -9 -15 -19
-15 -10 0 -18 -3 -18 -8 0 -4 -17 -16 -37 -27 -21 -11 -46 -27 -56 -37 -18
-18 -17 -18 12 -16 16 1 28 5 25 9 -5 9 25 21 37 13 5 -3 9 0 9 6 0 6 4 9 9 6
5 -4 11 -2 13 4 1 5 14 11 28 12 14 2 31 9 38 16 8 7 18 10 23 7 5 -4 15 -3
22 2 6 4 15 8 20 9 4 1 8 2 10 4 3 2 39 11 62 14 11 2 28 7 38 11 10 4 34 8
53 9 19 0 34 4 34 7 0 5 51 11 93 10 9 0 15 5 11 11 -4 6 2 6 15 -1 11 -7 21
-8 21 -3 0 5 11 8 25 8 14 -1 52 1 85 4 37 4 61 2 64 -5 2 -5 5 -4 5 3 1 7 5
11 10 7 6 -3 34 -7 63 -10 29 -2 53 -5 53 -5 0 -3 58 -10 93 -12 17 -1 32 -4
32 -8 0 -3 15 -7 33 -8 17 -2 55 -9 84 -16 28 -8 54 -11 57 -8 3 3 6 0 6 -7 0
-8 6 -11 16 -7 9 4 22 2 28 -3 6 -5 23 -11 36 -13 14 -2 30 -6 35 -9 6 -3 17
-5 25 -4 8 0 21 -5 28 -12 7 -7 19 -10 27 -7 8 4 15 1 15 -6 0 -7 6 -10 14 -7
7 3 23 -1 35 -9 12 -8 26 -12 31 -9 6 3 10 1 10 -5 0 -6 5 -8 10 -5 6 3 10 1
10 -4 0 -6 3 -10 8 -9 20 7 275 -117 389 -188 13 -8 26 -15 30 -16 5 -1 19
-12 33 -25 14 -13 28 -23 31 -23 3 0 15 -8 27 -17 11 -10 46 -36 76 -58 31
-22 56 -43 56 -47 0 -4 5 -8 10 -8 12 0 260 -244 260 -255 0 -4 14 -21 30 -37
17 -15 30 -31 30 -34 0 -7 63 -88 73 -92 4 -2 5 -8 1 -13 -3 -5 -1 -9 4 -9 5
0 17 -16 26 -35 9 -19 21 -35 27 -35 6 0 8 -4 5 -9 -3 -5 3 -20 14 -33 11 -14
16 -28 13 -32 -3 -3 -1 -6 5 -6 7 0 12 -7 12 -15 0 -8 5 -15 10 -15 6 0 10 -6
8 -12 -1 -7 5 -24 14 -38 23 -35 97 -211 104 -249 4 -17 9 -31 13 -31 4 0 8
-8 9 -17 3 -31 7 -48 15 -59 3 -6 8 -25 9 -43 1 -17 6 -31 10 -31 4 0 7 -3 6
-7 -1 -5 2 -24 6 -43 4 -19 8 -43 10 -52 1 -10 5 -20 8 -24 4 -3 4 -12 1 -20
-3 -8 -1 -14 3 -14 5 0 10 -17 11 -38 2 -41 10 -119 17 -170 4 -24 2 -31 -7
-25 -7 4 -7 1 2 -10 23 -29 15 -333 -14 -547 -4 -30 -8 -63 -9 -72 0 -10 -3
-18 -7 -18 -4 0 -7 -12 -7 -27 0 -16 -3 -39 -7 -53 -3 -14 -8 -34 -9 -45 -2
-11 -4 -20 -5 -20 -2 0 -5 -11 -7 -25 -3 -14 -10 -43 -16 -65 -14 -50 -14 -47
-21 -65 -3 -8 -11 -33 -17 -55 -6 -22 -15 -49 -20 -60 -46 -115 -60 -152 -60
-162 0 -6 -5 -13 -11 -15 -5 -2 -11 -10 -13 -18 -1 -8 -11 -31 -21 -50 -11
-19 -18 -38 -17 -42 1 -5 -3 -8 -8 -8 -6 0 -10 -6 -10 -12 0 -13 -44 -83 -76
-123 -9 -11 -21 -31 -27 -45 -6 -14 -17 -29 -24 -33 -7 -4 -13 -15 -13 -22 0
-8 -4 -15 -8 -15 -4 0 -15 -12 -24 -27 -9 -16 -33 -46 -52 -68 -20 -22 -36
-44 -36 -48 0 -5 -4 -5 -10 -2 -5 3 -10 1 -10 -5 0 -10 -145 -157 -207 -210
-72 -61 -112 -91 -118 -90 -4 1 -15 -8 -24 -19 -10 -12 -23 -21 -29 -21 -5 0
-13 -7 -16 -16 -4 -9 -9 -14 -12 -11 -4 3 -13 -1 -21 -9 -8 -8 -18 -12 -23 -9
-4 3 -10 -2 -14 -10 -3 -8 -12 -15 -21 -15 -8 0 -15 -4 -15 -9 0 -5 -11 -12
-25 -15 -14 -4 -25 -11 -25 -16 0 -6 -6 -10 -13 -10 -7 0 -29 -11 -50 -25 -20
-14 -37 -23 -37 -20 0 3 -10 0 -22 -7 -13 -7 -26 -11 -30 -10 -5 1 -8 -2 -8
-7 0 -10 -69 -37 -82 -33 -5 1 -8 -3 -8 -8 0 -6 -9 -10 -21 -10 -11 0 -18 -4
-15 -8 2 -4 -3 -8 -12 -9 -9 0 -47 -12 -84 -26 -37 -13 -69 -22 -72 -19 -3 3
-6 1 -6 -5 0 -5 -6 -10 -12 -11 -15 -1 -52 -10 -55 -12 -2 -2 -7 -4 -13 -5 -5
-1 -13 -4 -17 -5 -5 -1 -12 -3 -18 -5 -5 -1 -13 -3 -17 -5 -5 -1 -12 -4 -18
-5 -5 -1 -11 -3 -12 -5 -3 -2 -63 -11 -90 -13 -10 -1 -18 -4 -18 -7 0 -3 -8
-6 -17 -7 -10 -1 -34 -5 -53 -8 -69 -11 -105 -16 -125 -16 -11 0 -23 -5 -27
-12 -6 -9 -8 -9 -8 1 0 7 -5 10 -12 6 -6 -4 -45 -9 -87 -11 -42 -2 -81 -6 -88
-8 -6 -2 -14 1 -17 8 -3 8 -5 9 -5 1 -1 -8 -12 -9 -34 -4 -18 4 -47 6 -65 6
-18 -1 -32 2 -32 5 0 4 -10 5 -22 5 -13 -1 -27 0 -32 3 -6 2 -19 6 -30 7 -47
6 -92 17 -101 24 -5 4 -20 6 -32 5 -13 -1 -23 2 -23 7 0 4 -3 7 -7 7 -5 -1
-11 0 -15 1 -7 2 -22 4 -59 9 -5 0 -8 5 -5 9 2 4 -6 9 -19 10 -27 2 -124 39
-143 54 -15 13 -27 4 -17 -11 3 -6 20 -18 38 -27 17 -9 37 -23 45 -30 7 -8 18
-12 23 -9 5 4 9 0 9 -8 0 -12 -8 -12 -57 1 -32 9 -61 21 -65 27 -4 5 -8 6 -8
1 0 -5 -6 -4 -12 1 -7 5 -23 8 -35 7 -13 -1 -23 4 -23 12 0 8 -6 11 -15 8 -8
-4 -15 -1 -15 5 0 6 -3 10 -7 10 -22 -4 -44 2 -39 10 3 5 -6 9 -19 9 -14 0
-25 -1 -25 -3 0 -1 26 -19 58 -41 31 -21 59 -41 62 -44 3 -3 12 -6 20 -8 8 -2
17 -8 18 -13 2 -5 10 -9 18 -9 8 0 14 -5 14 -11 0 -5 4 -8 9 -5 5 3 12 -1 15
-10 4 -9 9 -14 12 -11 4 3 24 -6 47 -20 22 -14 45 -26 51 -28 6 -1 38 -14 71
-29 88 -40 174 -77 188 -81 4 -2 8 -3 10 -5 4 -3 42 -12 60 -13 9 -1 17 -4 17
-7 0 -4 6 -7 13 -7 6 -1 26 -5 42 -10 17 -5 37 -9 45 -8 8 0 17 -3 20 -6 3 -4
25 -10 50 -13 25 -2 45 -5 45 -7 0 -1 9 -3 20 -4 11 -2 45 -6 75 -10 30 -4 78
-8 107 -9 28 0 49 -4 46 -8 -2 -5 1 -8 6 -8 6 0 11 5 11 11 0 5 5 7 10 4 6 -4
22 -8 36 -11 18 -3 23 -1 18 7 -5 8 -3 9 7 3 15 -9 449 -14 449 -5 0 3 17 6
38 5 20 0 42 2 47 5 11 6 22 8 78 16 21 3 46 9 56 15 10 5 21 7 24 3 4 -3 13
0 22 7 12 10 15 10 15 -1 0 -11 2 -11 10 1 5 8 10 12 10 8 0 -4 20 -1 44 6 25
8 47 11 50 8 4 -3 6 1 6 8 0 7 3 11 6 8 3 -4 20 0 39 7 18 8 35 11 39 8 3 -4
6 -1 6 5 0 7 3 11 8 10 4 -1 23 4 42 11 19 8 38 13 43 12 4 0 7 4 7 11 0 6 3
8 7 5 3 -4 17 0 30 8 13 9 28 13 33 10 6 -3 10 -2 10 4 0 6 11 13 25 17 14 3
25 9 25 13 0 5 18 14 40 21 22 7 45 19 51 27 6 7 15 10 20 7 5 -3 9 0 9 5 0 6
7 11 15 11 8 0 15 5 15 10 0 6 6 10 14 10 8 0 22 7 30 16 9 8 16 12 16 9 0 -4
14 5 31 19 17 14 34 26 38 26 5 0 20 12 35 26 14 15 26 24 26 20 0 -5 27 14
55 41 8 7 19 13 25 13 6 0 8 4 5 10 -3 5 0 10 7 10 18 1 58 35 58 51 0 7 3 10
6 6 3 -3 54 42 113 101 58 58 104 107 102 107 -2 0 13 18 35 41 53 54 84 92
84 102 0 5 8 17 18 28 17 20 24 30 63 92 12 17 25 32 31 32 5 0 6 5 3 10 -3 6
1 13 9 16 9 3 14 10 11 14 -3 5 3 13 12 19 10 5 17 13 17 18 -2 13 19 53 28
53 4 0 8 7 8 15 0 8 10 24 23 36 12 12 16 19 10 15 -7 -4 -13 -3 -13 3 0 5 4
11 9 13 13 5 81 145 74 152 -4 3 -1 6 5 6 7 0 12 5 12 10 0 6 9 30 20 52 11
23 20 50 20 59 0 10 5 21 10 24 6 4 8 11 5 16 -4 5 -1 9 4 9 6 0 10 3 10 8 -1
4 0 10 1 15 1 4 3 10 4 15 1 4 10 34 21 67 10 33 19 63 21 68 1 4 3 10 4 15 2
4 4 12 5 17 2 6 4 12 5 15 4 13 12 47 13 65 1 11 8 27 16 35 9 10 10 15 2 18
-7 2 -8 10 -2 20 4 9 11 33 15 52 3 19 8 46 11 60 9 41 19 112 31 225 12 116
12 449 0 457 -7 5 -7 8 2 8 9 0 10 5 4 18 -5 9 -10 35 -11 57 -6 74 -9 100
-10 100 -1 0 -4 23 -7 50 -5 48 -7 61 -20 123 -3 15 -7 36 -8 48 -2 11 -6 26
-10 32 -3 6 -8 23 -10 39 -4 28 -51 194 -63 223 -3 8 -7 18 -8 23 -2 4 -4 9
-5 12 -1 3 -3 8 -5 13 -3 13 -17 46 -30 77 -8 16 -11 33 -9 37 3 4 0 8 -5 8
-6 0 -11 8 -11 18 0 9 -7 26 -15 36 -8 11 -15 28 -15 38 0 10 -5 18 -11 18 -5
0 -7 5 -4 10 3 6 1 10 -5 10 -6 0 -8 5 -5 10 3 6 1 10 -4 10 -6 0 -10 3 -9 8
2 7 -33 83 -42 92 -7 7 -36 58 -67 117 -15 29 -29 50 -33 48 -3 -2 -12 11 -20
28 -8 18 -22 41 -32 51 -10 11 -18 25 -18 30 0 6 -9 17 -20 24 -11 7 -20 17
-20 22 0 9 -19 35 -47 65 -7 8 -13 19 -13 25 0 6 -4 8 -10 5 -5 -3 -10 0 -10
7 0 8 -9 20 -20 28 -11 8 -20 18 -20 23 0 10 -242 248 -247 243 -2 -2 -16 8
-31 23 -15 14 -41 36 -57 48 -17 12 -51 37 -78 57 -26 20 -52 36 -57 36 -6 0
-10 5 -10 10 0 6 -7 10 -15 10 -8 0 -15 4 -15 9 0 5 -8 12 -17 15 -10 3 -40
20 -68 36 -27 17 -58 33 -67 36 -10 4 -18 10 -18 15 0 5 -8 9 -18 9 -10 0 -26
6 -37 14 -11 7 -22 14 -25 14 -3 1 -27 11 -55 23 -27 13 -54 24 -60 26 -44 12
-85 29 -85 36 0 5 -4 5 -10 2 -5 -3 -10 -2 -10 2 0 5 -12 9 -27 8 -16 0 -31 3
-34 7 -3 5 -14 10 -25 12 -10 2 -39 9 -64 16 -39 11 -65 16 -105 24 -5 1 -16
6 -24 10 -11 7 -12 6 -6 -5 7 -11 6 -12 -6 -3 -8 6 -34 12 -59 13 -25 2 -53 7
-62 12 -12 7 -18 6 -18 -1 0 -7 -6 -7 -21 0 -11 7 -27 9 -34 6 -8 -3 -16 -2
-19 2 -7 12 -515 13 -538 1 -15 -8 -19 -8 -14 0 8 12 3 15 -7 5z"/>
<path d="M1827 4663 c-4 -6 -23 -9 -43 -6 -27 3 -34 1 -28 -9 6 -10 5 -10 -8
0 -12 10 -18 10 -23 1 -6 -8 -10 -7 -16 2 -5 8 -9 9 -9 4 0 -6 -15 -10 -32
-10 -18 0 -37 -2 -43 -4 -5 -3 -19 -7 -30 -8 -11 -2 -33 -6 -50 -9 -16 -3 -36
-6 -42 -6 -7 -1 -13 -4 -13 -8 0 -3 -11 -7 -25 -8 -56 -5 -65 -7 -65 -14 0 -4
-6 -8 -14 -8 -8 0 -27 -5 -43 -12 -15 -6 -34 -10 -40 -9 -7 1 -13 -4 -13 -10
0 -7 -3 -9 -7 -6 -3 4 -12 2 -20 -4 -7 -6 -13 -9 -13 -5 0 3 -17 -3 -37 -14
-21 -11 -43 -20 -50 -20 -7 0 -13 -5 -13 -10 0 -6 -3 -9 -7 -8 -8 3 -105 -43
-113 -53 -9 -10 -55 -33 -62 -31 -5 1 -8 -3 -8 -8 0 -6 -6 -10 -14 -10 -8 0
-16 -3 -18 -7 -1 -5 -28 -25 -58 -46 -67 -46 -107 -78 -171 -138 -26 -25 -51
-44 -54 -41 -3 3 -5 1 -5 -5 0 -6 -26 -38 -58 -71 -31 -32 -68 -74 -82 -92
-14 -17 -40 -48 -57 -68 -18 -21 -33 -42 -33 -48 0 -7 -7 -15 -16 -18 -8 -3
-12 -10 -9 -16 3 -6 -1 -13 -9 -16 -9 -3 -16 -13 -16 -20 0 -8 -7 -17 -15 -20
-8 -4 -15 -15 -15 -25 0 -11 -7 -22 -15 -25 -8 -4 -13 -10 -10 -14 3 -5 0 -14
-7 -22 -7 -7 -14 -20 -16 -28 -2 -8 -7 -17 -11 -20 -6 -4 -20 -31 -26 -50 -6
-21 -52 -106 -60 -112 -5 -4 -7 -8 -3 -8 6 0 -25 -87 -52 -145 -5 -11 -17 -45
-26 -75 -9 -30 -18 -62 -21 -70 -7 -19 -12 -38 -18 -70 -2 -14 -8 -38 -12 -55
-5 -16 -9 -37 -8 -45 1 -8 -2 -19 -6 -25 -3 -5 -5 -20 -4 -32 1 -13 -2 -23 -6
-23 -5 0 -6 -7 -3 -15 4 -8 1 -22 -6 -30 -9 -11 -9 -15 -1 -15 8 0 9 -6 3 -17
-5 -10 -8 -28 -7 -40 1 -13 -2 -23 -7 -23 -5 0 -4 -9 2 -20 6 -12 7 -20 1 -20
-10 0 -13 -348 -3 -364 3 -5 6 -32 8 -60 1 -28 5 -73 9 -101 4 -27 7 -56 8
-62 0 -7 3 -13 6 -13 3 0 7 -15 8 -33 2 -32 7 -61 17 -104 4 -13 8 -31 10 -40
2 -10 9 -30 15 -45 6 -16 8 -28 5 -28 -4 0 -1 -6 5 -14 6 -7 12 -25 13 -40 1
-14 6 -26 11 -26 4 0 5 -4 2 -10 -3 -5 -2 -10 3 -10 5 0 9 -6 9 -14 0 -16 49
-136 75 -184 10 -18 18 -39 18 -46 0 -8 3 -16 8 -18 4 -2 22 -32 41 -68 19
-36 42 -76 52 -89 11 -13 19 -30 19 -37 0 -8 4 -14 8 -14 4 0 15 -12 24 -27 9
-16 25 -38 35 -50 44 -52 53 -64 53 -69 0 -3 6 -12 13 -19 6 -8 23 -28 37 -45
33 -40 160 -173 160 -166 0 2 15 -10 34 -27 63 -60 106 -96 106 -91 0 3 7 -1
15 -8 17 -15 35 -29 57 -43 8 -5 35 -23 59 -40 57 -38 91 -58 159 -92 30 -15
58 -31 61 -36 3 -5 9 -8 13 -7 7 2 110 -36 138 -51 10 -5 27 -9 38 -9 11 0 20
-3 20 -7 0 -5 10 -9 23 -10 27 -3 47 -8 70 -18 10 -4 28 -9 40 -10 12 -1 22
-3 22 -5 0 -2 43 -8 82 -11 18 -1 30 -5 28 -8 -2 -4 19 -6 46 -6 28 0 52 -2
54 -5 2 -3 40 -5 84 -4 45 0 81 -3 81 -8 0 -5 6 -6 13 -1 21 13 47 14 47 1 0
-9 3 -9 11 -1 6 6 23 8 45 3 21 -5 34 -4 34 2 0 7 5 6 13 -1 8 -6 16 -8 19 -5
10 9 118 10 118 1 0 -5 6 -5 13 1 7 6 25 9 40 8 15 -2 27 0 27 4 0 4 16 6 36
5 19 -1 37 2 40 6 2 4 13 6 24 4 11 -2 20 0 20 4 0 4 10 7 23 6 12 -1 27 1 32
4 6 4 24 8 40 10 17 2 32 6 35 11 3 4 17 6 32 6 14 -1 24 2 22 6 -3 4 -2 8 3
9 4 0 17 3 28 5 11 3 26 6 33 6 6 1 12 6 12 11 0 6 3 7 7 4 3 -4 12 -2 20 4 7
6 13 8 13 5 0 -4 10 -1 23 6 12 7 24 13 27 13 3 0 15 6 28 13 12 7 22 9 22 5
0 -4 4 -3 8 3 9 12 84 49 95 46 4 -1 10 5 13 13 4 8 12 15 19 15 7 0 29 11 49
25 20 13 36 21 36 17 0 -4 4 -2 8 3 4 6 26 23 50 39 23 16 42 30 42 31 0 6
-25 -1 -40 -10 -8 -5 -19 -10 -25 -10 -5 -1 -23 -7 -40 -14 -16 -7 -38 -14
-49 -17 -10 -2 -24 -8 -32 -15 -11 -9 -14 -8 -14 2 0 12 -2 12 -9 1 -4 -8 -11
-13 -15 -13 -3 1 -7 1 -8 0 -4 -1 -27 -6 -53 -13 -11 -2 -27 -6 -35 -9 -8 -2
-12 -2 -7 0 4 3 7 11 7 19 0 9 4 13 9 9 6 -3 14 3 20 12 6 10 11 14 11 9 0 -5
7 -3 15 4 8 7 15 10 15 6 0 -3 9 3 21 15 23 23 18 39 -6 19 -8 -7 -15 -10 -15
-7 0 3 -25 -5 -55 -18 -30 -14 -55 -22 -55 -19 0 4 -7 1 -15 -6 -8 -7 -15 -9
-15 -5 0 4 -7 2 -15 -5 -8 -7 -15 -10 -15 -7 0 3 -15 1 -32 -5 -18 -5 -44 -11
-58 -13 -14 -2 -25 -4 -25 -5 0 -1 -11 -4 -25 -5 -14 -2 -45 -7 -70 -11 -58
-10 -231 -10 -295 0 -27 4 -57 7 -65 8 -8 1 -18 6 -22 12 -6 8 -8 8 -8 0 0 -7
-11 -9 -25 -6 -14 2 -25 8 -25 12 0 5 -10 6 -22 2 -11 -3 -19 -1 -16 4 4 5 -8
9 -25 9 -18 0 -43 5 -56 11 -13 7 -30 10 -37 7 -8 -3 -14 0 -14 6 0 6 -13 11
-29 11 -17 0 -33 5 -36 10 -4 6 -12 10 -18 9 -7 -1 -28 5 -47 14 -19 8 -38 13
-42 11 -5 -3 -8 0 -8 6 0 6 -4 9 -9 5 -5 -3 -12 -1 -16 5 -4 6 -11 8 -16 5 -5
-4 -9 -1 -9 4 0 6 -6 11 -14 11 -33 0 -310 155 -360 201 -10 10 -23 16 -28 13
-4 -3 -8 2 -8 10 0 9 -4 15 -9 13 -16 -4 -261 223 -261 243 0 6 -5 10 -12 10
-6 0 -8 3 -5 6 3 4 -5 15 -18 26 -14 11 -23 24 -20 29 4 5 -2 9 -11 9 -10 0
-14 3 -11 7 4 3 -1 16 -11 27 -25 29 -102 153 -102 166 0 5 -4 10 -10 10 -5 0
-10 9 -10 20 0 11 -5 20 -12 20 -6 0 -8 3 -5 6 3 4 0 16 -8 28 -8 11 -15 28
-15 38 0 10 -3 18 -8 18 -8 0 -27 50 -45 118 -6 23 -15 42 -19 42 -5 0 -8 13
-8 29 0 17 -5 33 -10 36 -6 4 -10 12 -9 18 1 7 -1 23 -4 37 -4 14 -9 36 -11
50 -3 14 -6 27 -7 30 -1 3 -3 10 -4 15 -1 6 -5 30 -10 55 -15 76 -26 193 -29
287 -1 34 -4 65 -8 69 -4 3 -3 14 1 23 12 22 11 33 -2 50 -7 8 -7 12 -2 9 7
-4 12 17 14 60 3 74 8 137 11 137 2 0 11 64 13 93 0 12 4 22 8 22 3 0 5 11 4
25 -2 14 0 25 3 25 4 0 8 12 9 28 1 15 16 69 32 120 17 52 31 100 31 108 0 8
5 14 11 14 5 0 8 4 4 9 -3 5 0 13 6 16 5 4 8 13 5 20 -2 7 2 16 10 19 9 3 12
11 8 17 -3 6 -3 14 2 18 10 7 84 153 84 165 0 4 10 17 23 29 12 12 23 29 25
37 2 8 8 17 13 18 5 2 9 10 9 17 0 7 7 15 15 19 8 3 15 11 15 18 0 7 14 28 31
46 16 17 27 32 24 32 -3 0 10 16 29 35 20 19 33 35 31 35 -3 0 17 21 44 48 87
85 139 132 145 132 3 0 14 8 24 18 41 39 71 60 76 55 3 -4 6 1 6 10 0 10 3 16
8 16 17 -3 35 2 29 7 -4 4 11 16 33 26 22 11 40 24 40 29 0 5 5 9 11 9 6 0 38
16 70 35 33 19 67 35 75 35 9 0 12 5 8 12 -5 8 -2 9 9 5 10 -3 17 -2 17 3 0 6
3 9 8 8 4 -1 30 9 57 21 28 12 54 23 60 24 5 1 16 9 23 17 8 8 11 9 7 3 -3 -7
-1 -13 4 -13 6 0 11 5 11 10 0 6 8 10 18 10 10 0 22 3 26 7 3 4 16 8 28 10 12
2 27 8 33 13 7 5 15 7 18 3 4 -3 12 -1 19 5 7 5 29 13 48 16 19 3 51 10 70 16
19 6 53 13 74 16 22 2 56 8 75 13 20 4 48 7 64 7 15 -1 27 1 27 4 0 9 194 5
209 -4 10 -7 12 -5 6 3 -6 10 -3 11 14 2 12 -7 26 -9 31 -6 5 3 18 2 27 -4 10
-5 32 -10 48 -12 17 -2 35 -7 41 -11 6 -4 25 -8 42 -10 18 -1 32 -5 32 -8 0
-3 28 -14 63 -24 34 -11 67 -24 74 -28 7 -5 13 -4 16 4 3 8 6 6 6 -5 1 -10 5
-16 10 -13 5 4 12 0 14 -6 4 -9 6 -8 6 2 1 14 -59 60 -78 60 -16 0 -33 28 -21
35 5 3 10 2 10 -2 0 -8 116 -38 133 -35 4 1 7 -3 7 -8 0 -5 3 -9 8 -8 7 1 24
-4 72 -24 14 -5 25 -8 26 -6 0 1 8 -3 17 -10 12 -10 17 -10 23 -1 4 7 3 9 -3
6 -5 -3 -16 3 -23 14 -8 10 -20 19 -27 19 -7 0 -13 5 -13 10 0 6 -4 10 -10 10
-5 0 -25 11 -45 25 -21 13 -54 32 -76 42 -21 9 -39 20 -39 25 0 4 -8 8 -19 8
-10 0 -24 7 -31 15 -7 9 -15 13 -18 11 -2 -3 -22 4 -43 14 -21 11 -45 20 -54
20 -8 0 -15 5 -15 11 0 5 -4 7 -10 4 -5 -3 -10 -1 -10 5 0 6 -5 8 -10 5 -6 -4
-16 -2 -23 3 -7 6 -23 12 -37 14 -14 1 -28 6 -31 10 -3 5 -17 9 -32 10 -15 1
-27 5 -27 9 0 4 -11 6 -25 4 -14 -1 -28 2 -31 7 -3 4 -10 6 -15 3 -5 -4 -9 -3
-9 2 0 4 -12 9 -27 9 -50 3 -83 8 -83 14 0 3 -19 6 -43 6 -48 1 -157 10 -172
14 -5 1 -14 1 -20 0 -29 -8 -115 -4 -115 5 0 6 -4 4 -9 -4 -6 -9 -11 -10 -15
-2 -4 6 -12 8 -19 4 -15 -9 -57 -10 -57 -2 0 9 -20 6 -37 -4 -6 -4 -13 -2 -15
5 -3 8 -6 9 -11 1z"/>
<path d="M2583 3822 c-13 -2 -23 -6 -24 -10 0 -4 -2 -16 -5 -27 -2 -11 -6 -51
-8 -90 -3 -38 -5 -70 -6 -70 -1 0 -3 -22 -5 -50 -6 -75 -13 -94 -32 -90 -10 1
-24 -2 -30 -8 -9 -6 -13 -6 -13 2 0 7 -5 9 -12 4 -21 -12 -38 -12 -38 0 0 8
-3 8 -8 2 -4 -5 -12 -11 -18 -12 -15 -3 -85 -13 -101 -15 -7 -1 -13 -4 -13 -8
0 -3 -15 -6 -32 -5 -18 0 -44 -5 -57 -12 -14 -7 -28 -10 -33 -7 -4 3 -14 2
-20 -3 -13 -7 -45 -12 -105 -15 -18 -1 -33 -7 -33 -12 0 -6 -5 -5 -12 2 -6 6
-18 8 -27 3 -14 -6 -37 -7 -43 -1 -2 1 -20 3 -40 5 -26 2 -35 -1 -31 -9 4 -6
-3 -2 -15 8 -13 11 -22 14 -22 7 0 -8 -6 -9 -17 -3 -10 4 -25 8 -33 7 -8 -1
-19 2 -25 5 -19 13 -62 -14 -60 -38 2 -25 31 -51 58 -52 9 0 17 -1 17 -2 0 -2
-7 -25 -15 -52 -8 -26 -12 -52 -9 -57 3 -5 1 -9 -4 -9 -6 0 -13 -16 -16 -35
-4 -19 -12 -35 -18 -35 -9 0 -9 -3 -1 -11 7 -7 8 -18 3 -28 -25 -51 -39 -97
-42 -138 -1 -7 -6 -13 -11 -13 -6 0 -8 -3 -4 -6 3 -3 -1 -23 -8 -44 -7 -21
-11 -41 -8 -44 4 -3 2 -6 -3 -6 -5 0 -11 -11 -12 -26 -1 -14 -6 -34 -12 -44
-5 -10 -10 -28 -10 -39 0 -12 -4 -21 -8 -21 -4 0 -8 -8 -9 -17 -1 -23 -8 -51
-21 -84 -6 -15 -8 -30 -5 -33 4 -3 0 -6 -7 -6 -7 0 -11 -3 -8 -6 4 -3 2 -20
-4 -37 -5 -18 -10 -40 -10 -49 1 -10 -3 -18 -8 -18 -5 0 -11 -9 -15 -19 -4
-13 -13 -18 -30 -16 -14 1 -25 -3 -25 -9 0 -6 -5 -4 -10 4 -6 10 -10 11 -10 2
0 -6 -5 -11 -11 -10 -6 2 -13 -7 -15 -19 -3 -15 7 -34 29 -57 17 -18 42 -44
54 -57 31 -34 53 -52 93 -80 19 -13 41 -30 48 -37 8 -7 18 -10 23 -7 5 4 9 1
9 -5 0 -7 7 -9 15 -6 9 3 18 0 21 -8 3 -7 10 -13 17 -14 59 -4 107 -11 115
-16 6 -3 13 -2 16 3 4 5 14 8 24 6 9 -1 23 2 30 8 6 5 12 6 12 3 0 -4 10 -1
23 6 12 7 26 11 31 10 4 -2 14 2 20 8 7 5 16 7 19 3 4 -3 7 2 7 12 0 10 3 15
7 12 3 -4 15 0 25 10 10 9 18 13 18 9 0 -4 41 34 90 84 50 50 90 97 90 104 0
7 -9 21 -20 31 -13 12 -20 14 -20 5 0 -10 -3 -10 -15 0 -8 7 -15 9 -15 6 0 -4
-9 -2 -20 4 -13 7 -20 7 -20 1 0 -6 -6 -8 -14 -5 -12 5 -50 101 -51 129 0 6
-4 16 -8 23 -5 6 -5 12 -1 12 3 0 2 6 -4 13 -6 7 -13 24 -16 39 -2 14 -9 36
-16 47 -6 12 -8 21 -4 21 3 0 2 6 -4 13 -6 7 -13 26 -16 42 -2 17 -5 32 -6 35
-1 3 -2 8 -1 13 0 4 -4 7 -10 7 -6 0 -9 7 -6 15 4 8 2 17 -4 20 -5 4 -7 11 -4
16 4 5 1 9 -5 9 -6 0 -9 4 -5 10 3 5 1 17 -4 27 -12 22 -36 115 -33 126 1 4
-3 7 -8 7 -6 0 -10 11 -10 25 0 14 -4 25 -9 25 -6 0 -8 9 -6 20 2 11 -1 20 -7
20 -6 0 -8 3 -5 7 4 3 2 12 -4 20 -6 7 -9 13 -5 13 3 0 0 16 -8 35 -8 19 -13
35 -11 35 3 0 0 11 -5 25 -9 24 -8 25 25 25 19 0 35 -4 35 -10 0 -6 9 -6 25 0
13 5 27 5 30 1 6 -11 207 -7 225 4 9 5 11 4 6 -3 -5 -9 0 -10 16 -4 13 4 44 7
71 7 26 -1 47 1 47 5 0 6 185 2 217 -5 12 -3 20 -12 19 -21 -1 -9 1 -37 5 -63
3 -25 2 -57 -3 -71 -17 -45 -18 -88 -3 -124 12 -28 13 -41 4 -57 -6 -11 -8
-26 -6 -34 3 -7 0 -18 -6 -24 -8 -8 -8 -11 2 -11 7 0 9 -5 5 -12 -5 -7 -9 -44
-10 -83 -2 -38 -5 -119 -9 -180 -3 -60 -7 -141 -8 -180 -1 -38 -6 -76 -10 -82
-5 -8 -4 -13 3 -13 6 0 8 -5 4 -12 -5 -7 -9 -46 -10 -88 -1 -41 -3 -77 -4 -80
-6 -13 -5 -37 3 -52 4 -10 4 -18 -1 -18 -5 0 -8 -27 -7 -60 1 -61 -3 -68 -50
-75 -5 -1 -12 -3 -15 -4 -9 -4 -45 -12 -67 -14 -11 -1 -19 -5 -16 -9 2 -5 -5
-8 -17 -8 -11 0 -39 -9 -61 -19 -21 -11 -36 -15 -33 -9 4 6 -5 2 -19 -7 -14
-9 -32 -18 -39 -20 -64 -14 -77 -18 -73 -25 3 -5 -3 -7 -12 -5 -10 1 -22 -1
-28 -5 -12 -9 -67 -24 -77 -22 -5 1 -8 -2 -8 -6 0 -4 -10 -8 -22 -9 -44 -4
-53 -59 -10 -70 15 -4 29 -8 32 -9 3 -1 20 -5 38 -9 17 -4 32 -11 32 -15 0 -3
6 -7 13 -8 30 -4 54 -10 77 -19 18 -8 27 -7 32 1 6 8 8 8 8 0 0 -7 7 -15 16
-18 9 -4 13 -2 8 5 -4 8 -1 8 14 0 11 -6 31 -11 45 -11 13 0 27 -3 31 -7 4 -4
30 -9 59 -10 29 -2 66 -5 84 -6 17 -1 34 -5 38 -9 4 -4 18 -3 31 2 13 5 24 6
24 2 0 -9 47 -8 57 1 3 4 12 2 20 -4 10 -9 17 -8 28 1 8 7 15 8 15 3 0 -11 42
-9 59 2 6 3 11 1 11 -5 0 -7 6 -8 19 0 11 5 26 7 34 4 9 -3 25 -1 36 6 16 8
21 8 21 -2 0 -8 3 -9 8 -3 4 6 16 10 27 10 11 0 27 3 36 7 9 4 22 2 29 -5 10
-9 11 -9 6 1 -7 11 11 16 67 15 9 0 17 3 17 7 0 4 6 7 13 8 25 2 63 9 82 15
11 3 31 8 45 11 46 9 65 14 93 25 15 6 27 8 27 5 0 -3 10 2 22 10 34 24 31 63
-4 57 -5 0 -8 3 -8 9 0 5 -9 10 -19 10 -11 0 -22 4 -26 10 -3 5 -12 7 -19 4
-7 -3 -20 2 -29 10 -8 8 -17 13 -19 10 -3 -2 -18 1 -34 7 -16 7 -35 11 -41 10
-7 -1 -13 3 -13 9 0 6 -4 9 -9 6 -8 -5 -39 5 -136 44 -44 18 -60 23 -67 22 -4
-1 -22 5 -41 13 -19 8 -37 11 -41 8 -3 -4 -6 -1 -6 4 0 6 -11 10 -25 8 -23 -2
-25 1 -21 26 2 16 0 31 -5 35 -5 3 -5 13 -1 22 10 20 10 33 -1 50 -5 7 -3 12
5 12 8 0 9 3 3 8 -5 4 -10 36 -10 72 0 36 -3 77 -7 93 -4 18 -3 27 5 27 8 0 8
3 2 8 -5 4 -11 25 -11 47 -6 161 -9 191 -17 203 -6 7 -6 12 0 12 9 0 11 47 2
65 -2 6 -4 54 -4 107 0 54 -2 98 -5 98 -3 0 -6 25 -7 56 -1 32 -6 60 -11 63
-6 4 -4 20 6 41 10 19 17 42 16 50 -2 41 -17 100 -26 100 -5 0 -6 10 -2 23 4
12 8 38 10 57 1 19 3 40 3 46 1 13 7 14 156 12 198 -1 205 -2 205 -10 0 -4 12
-3 26 2 14 6 23 6 20 2 -2 -4 40 -8 94 -8 56 0 96 4 93 9 -3 5 5 4 17 -3 15
-8 20 -8 16 -1 -8 13 21 10 43 -3 10 -6 12 -5 7 2 -4 7 -1 12 9 12 13 0 16 -7
12 -35 -3 -20 -10 -42 -17 -50 -7 -8 -9 -15 -5 -15 4 0 2 -7 -5 -15 -7 -8 -10
-15 -6 -15 3 0 0 -16 -9 -35 -8 -20 -9 -33 -4 -29 6 3 3 -5 -6 -20 -10 -14
-15 -26 -12 -26 3 0 0 -15 -8 -34 -8 -18 -11 -36 -8 -40 4 -3 2 -6 -3 -6 -9 0
-14 -18 -17 -62 -1 -10 -4 -18 -8 -18 -7 0 -45 -130 -41 -142 1 -5 -3 -8 -9
-8 -5 0 -8 -3 -6 -8 3 -4 -6 -41 -20 -82 -13 -41 -27 -86 -29 -98 -3 -13 -12
-43 -20 -65 -9 -23 -16 -48 -16 -54 -1 -13 -5 -15 -35 -16 -10 -1 -21 -6 -25
-12 -5 -6 -8 -5 -8 4 0 10 -3 11 -13 2 -8 -6 -16 -9 -19 -6 -3 3 -10 -6 -16
-19 -10 -22 -6 -30 38 -78 27 -29 49 -56 50 -60 0 -5 4 -8 10 -8 5 0 20 -10
34 -22 65 -61 146 -102 216 -112 9 -1 21 -5 27 -9 6 -4 14 -3 18 3 4 6 13 7
21 2 18 -10 117 13 151 35 13 9 23 11 23 7 0 -5 6 -2 13 6 7 8 25 22 42 30 16
8 45 30 63 48 18 17 37 32 43 32 6 0 7 5 4 10 -3 6 -1 10 6 10 7 0 10 2 7 5
-3 3 13 24 35 45 22 22 35 40 29 40 -6 0 -9 7 -6 15 6 14 -6 19 -43 18 -7 -1
-13 3 -13 8 0 4 -9 6 -19 4 -25 -5 -62 22 -55 40 4 8 1 15 -5 15 -6 0 -10 3
-9 8 4 13 -24 112 -33 118 -5 3 -7 9 -4 14 3 5 -1 23 -10 40 -8 16 -13 30 -11
30 3 0 -2 19 -10 43 -17 45 -25 73 -28 97 -1 9 -5 20 -8 25 -3 6 -16 44 -27
85 -12 41 -24 80 -25 85 -2 6 -4 15 -6 20 -1 6 -7 24 -14 40 -7 17 -11 36 -8
44 3 9 0 11 -8 6 -9 -5 -11 -4 -6 3 4 7 4 18 -1 25 -4 6 -9 23 -11 36 -2 14
-8 33 -13 43 -5 10 -7 23 -4 28 3 6 2 10 -2 10 -12 0 -14 40 -2 41 10 2 25 5
37 9 4 1 9 2 12 2 3 0 13 10 22 23 16 21 16 25 3 38 -8 8 -11 18 -7 22 4 4 -9
5 -28 1 -19 -4 -60 -9 -90 -13 -30 -3 -57 -10 -59 -15 -1 -5 -9 -1 -17 9 -7
10 -14 13 -14 7 0 -7 -13 -10 -31 -8 -22 3 -28 0 -23 -9 6 -8 3 -8 -9 1 -9 8
-21 11 -27 7 -5 -3 -10 -3 -10 2 0 4 -24 8 -53 8 -28 -1 -63 2 -77 7 -14 4
-43 10 -65 13 -56 9 -80 13 -80 15 0 3 -48 10 -67 11 -10 0 -18 4 -18 8 0 5
-12 7 -27 5 -15 -1 -32 0 -37 4 -6 3 -28 6 -51 7 -22 1 -50 5 -62 9 -19 6 -21
11 -13 32 5 13 6 24 1 24 -4 0 -7 20 -7 45 1 25 -1 45 -4 45 -3 0 -5 19 -3 42
1 23 -3 48 -9 55 -7 9 -7 13 1 13 7 0 8 8 1 26 -14 36 -31 50 -57 46z m-807
-581 c-4 -5 -2 -11 4 -13 5 -1 11 -15 12 -30 1 -16 5 -28 9 -28 3 0 6 -6 7
-12 1 -24 11 -57 22 -77 6 -12 8 -21 5 -21 -4 0 -3 -6 2 -12 4 -7 9 -22 10
-32 2 -11 8 -25 13 -31 5 -7 7 -15 3 -18 -3 -4 0 -13 7 -22 7 -8 9 -15 5 -15
-4 0 -2 -7 5 -15 7 -8 10 -15 6 -15 -3 0 1 -16 9 -36 8 -20 15 -45 15 -55 0
-11 4 -19 8 -19 4 0 9 -11 10 -26 1 -14 7 -34 12 -45 6 -11 8 -24 5 -29 -3 -6
-1 -10 5 -10 6 0 8 -4 5 -10 -3 -5 -2 -10 4 -10 6 0 8 -7 5 -15 -4 -8 -1 -15
5 -15 6 0 8 -6 5 -14 -3 -8 0 -17 5 -21 6 -3 9 -11 5 -16 -3 -5 0 -16 6 -24 7
-8 9 -15 5 -15 -4 0 -3 -6 2 -12 23 -30 24 -96 1 -82 -5 3 -45 7 -88 9 -43 2
-83 6 -89 10 -6 3 -11 2 -11 -2 0 -5 -28 -8 -63 -7 -35 0 -98 -2 -140 -5 -88
-7 -86 -11 -58 78 10 33 16 63 13 66 -3 3 -1 5 5 5 5 0 10 6 11 13 1 10 7 42
11 55 1 1 1 5 2 10 0 4 5 13 11 20 6 6 8 12 4 12 -3 0 -1 12 5 28 6 15 13 36
15 47 6 25 12 49 13 53 1 1 1 5 2 10 0 4 7 22 14 40 8 17 12 32 9 32 -3 0 -2
6 3 13 4 6 9 17 10 22 1 6 4 19 7 30 2 11 5 21 6 23 3 3 6 13 15 50 4 18 12
35 16 38 5 3 7 9 4 14 -3 5 0 21 6 37 12 28 18 54 21 86 1 9 8 17 16 17 7 0
11 -4 8 -9z m1685 -133 c5 -10 9 -29 9 -43 0 -14 4 -25 8 -25 5 0 9 -7 9 -15
0 -18 20 -89 38 -130 6 -16 11 -38 9 -47 -1 -10 2 -18 7 -18 5 0 9 -9 9 -20 0
-12 7 -34 15 -49 8 -16 12 -31 9 -33 -2 -3 2 -21 10 -40 9 -20 13 -38 11 -40
-3 -2 4 -23 15 -46 11 -22 20 -53 20 -67 0 -14 5 -25 11 -25 6 0 9 -6 6 -12
-2 -7 0 -21 5 -30 7 -15 4 -18 -14 -19 -13 -1 -30 -2 -38 -3 -8 -1 -21 3 -28
8 -9 7 -16 5 -23 -5 -5 -8 -9 -9 -9 -4 0 12 -238 14 -257 2 -8 -5 -13 -3 -13
5 0 8 -3 9 -8 3 -9 -12 -72 -15 -72 -3 0 5 -4 6 -10 3 -19 -12 -32 6 -14 20
10 7 15 19 11 29 -4 9 -2 16 3 16 6 0 10 10 10 23 0 13 6 29 13 36 10 11 9 12
-1 7 -7 -4 -4 7 7 25 11 18 18 36 15 41 -3 4 -2 14 3 21 4 6 9 18 10 25 7 29
12 47 13 50 2 1 3 6 4 11 0 5 4 13 9 17 4 4 7 18 7 30 0 13 4 25 9 28 5 4 8
14 7 24 -2 9 1 20 5 23 5 3 10 17 11 32 1 15 6 27 11 27 4 0 5 4 2 10 -3 5 0
20 6 32 7 13 14 30 15 38 4 21 10 42 18 62 4 9 9 25 11 35 2 10 4 20 5 23 1 3
3 10 5 15 1 6 3 12 4 15 1 3 4 16 7 29 2 14 10 31 16 39 10 12 16 2 31 -49 10
-35 23 -72 28 -81z"/>
</g>
</svg>
