<svg width="80" height="80" viewBox="0 0 80 80" fill="none" xmlns="http://www.w3.org/2000/svg">
<path d="M77.1911 70.8536H77.0488V69.0107C77.0488 67.4619 75.7887 66.2019 74.2398 66.2019H70.8942V63.6607C70.8942 62.4535 69.9452 61.4664 68.7544 61.3997V37.5121C69.9452 37.4453 70.8942 36.4583 70.8942 35.2511V32.7099H74.1402C75.3769 32.7099 76.3831 31.7038 76.3831 30.4669V28.0719H78.0892C79.0931 28.0719 79.91 27.255 79.91 26.2513V24.1813C79.91 23.5119 79.5444 22.8983 78.9553 22.5797L52.0805 8.04628C51.5098 7.73722 50.798 7.95003 50.4898 8.52035C50.1816 9.0905 50.3937 9.80269 50.9639 10.1108L77.5627 24.495V25.7246H2.43734V24.5052L40.5769 4.49363L46.1275 7.4955C46.698 7.80425 47.4098 7.5916 47.7181 7.02144C48.0264 6.45128 47.8142 5.7391 47.2441 5.43097L41.6933 2.42894C41.0077 2.05816 40.1861 2.053 39.4956 2.41519L1.06516 22.5744C0.463594 22.8899 0.09 23.5077 0.09 24.1868V26.2511C0.09 27.255 0.906875 28.0718 1.91078 28.0718H3.61688V30.4669C3.61688 31.7036 4.62297 32.7099 5.85984 32.7099H9.10578V35.2511C9.10578 36.4583 10.0548 37.4453 11.2456 37.5121V53.0628C11.2456 53.7111 11.7711 54.2364 12.4192 54.2364C13.0673 54.2364 13.5928 53.711 13.5928 53.0628V37.5186H17.3484V61.3933H13.593V58.5789C13.593 57.9307 13.0675 57.4053 12.4194 57.4053C11.7713 57.4053 11.2458 57.9307 11.2458 58.5789V61.3997C10.055 61.4664 9.10594 62.4535 9.10594 63.6607V66.2019H5.76016C4.21141 66.2019 2.95125 67.4619 2.95125 69.0107V70.8536H2.80891C1.26 70.8536 0 72.1136 0 73.6625V76.1174C0 77.0743 0.778594 77.853 1.73547 77.853H78.2645C79.2214 77.853 80 77.0744 80 76.1174V73.6625C80 72.1136 78.74 70.8536 77.1911 70.8536ZM5.96422 30.3627V28.0719H74.0358V30.3627H5.96422ZM68.5469 63.7405V66.2018H60.5116V63.7405H68.5469ZM62.6514 61.3932V37.5185H66.407V61.3932H62.6514ZM60.5116 35.1713V32.71H68.5469V35.1713H60.5116ZM52.4016 61.3997V37.5121C53.5923 37.4453 54.5414 36.4583 54.5414 35.2511V32.7099H58.1642V35.2511C58.1642 36.4583 59.1133 37.4453 60.3041 37.5121V61.3997C59.1133 61.4664 58.1642 62.4535 58.1642 63.6607V66.2019H54.5414V63.6607C54.5414 62.4535 53.5923 61.4664 52.4016 61.3997ZM52.1941 63.7405V66.2018H44.1587V63.7405H52.1941ZM46.2986 61.3932V37.5185H50.0542V61.3932H46.2986ZM44.1587 35.1713V32.71H52.1941V35.1713H44.1587ZM36.0488 61.3997V37.5121C37.2395 37.4453 38.1886 36.4583 38.1886 35.2511V32.7099H41.8114V35.2511C41.8114 36.4583 42.7605 37.4453 43.9512 37.5121V61.3997C42.7605 61.4664 41.8114 62.4535 41.8114 63.6607V66.2019H38.1886V63.6607C38.1886 62.4535 37.2395 61.4664 36.0488 61.3997ZM34.875 63.7405H35.8413V66.2018H27.8059V63.7405H28.7722H34.875ZM29.9458 61.3932V37.5185H33.7014V61.3932H29.9458ZM27.8059 35.1713V32.71H35.8413V35.1713H27.8059ZM19.6959 61.3997V37.5121C20.8867 37.4453 21.8358 36.4583 21.8358 35.2511V32.7099H25.4586V35.2511C25.4586 36.4583 26.4077 37.4453 27.5984 37.5121V61.3997C26.4077 61.4664 25.4586 62.4535 25.4586 63.6607V66.2019H21.8358V63.6607C21.8358 62.4535 20.8867 61.4664 19.6959 61.3997ZM11.4531 35.1713V32.71H19.4884V35.1713H11.4531ZM11.4531 63.7405H12.4194H18.5223H19.4886V66.2018H11.4531V63.7405ZM5.29859 69.0107C5.29859 68.7563 5.50563 68.5491 5.76016 68.5491H74.2398C74.4944 68.5491 74.7014 68.7561 74.7014 69.0107V70.8536H5.29859V69.0107ZM77.6527 75.5057H2.34734V73.6625C2.34734 73.4082 2.55437 73.201 2.80891 73.201H77.1911C77.4456 73.201 77.6527 73.408 77.6527 73.6625V75.5057Z" fill="black"/>
<path d="M62.6514 37.4599V61.4673H66.407V37.4599H62.6514Z" fill="#FF9400"/>
<path d="M46.2986 37.4599V61.4673H50.0542V37.4599H46.2986Z" fill="#FF9400"/>
<path d="M29.9458 37.4599V61.4673H33.7014V37.4599H29.9458Z" fill="#FF9400"/>
</svg>
