<?xml version="1.0" encoding="UTF-8" standalone="no"?>
<svg
   width="48"
   height="48"
   viewBox="0 0 48 48"
   fill="none"
   version="1.1"
   id="svg4"
   sodipodi:docname="briefcase.svg"
   inkscape:version="1.1 (c68e22c387, 2021-05-23)"
   xmlns:inkscape="http://www.inkscape.org/namespaces/inkscape"
   xmlns:sodipodi="http://sodipodi.sourceforge.net/DTD/sodipodi-0.dtd"
   xmlns="http://www.w3.org/2000/svg"
   xmlns:svg="http://www.w3.org/2000/svg">
  <defs
     id="defs8" />
  <sodipodi:namedview
     id="namedview6"
     pagecolor="#ffffff"
     bordercolor="#666666"
     borderopacity="1.0"
     inkscape:pageshadow="2"
     inkscape:pageopacity="0.0"
     inkscape:pagecheckerboard="0"
     showgrid="false"
     inkscape:zoom="17.354167"
     inkscape:cx="24"
     inkscape:cy="23.971188"
     inkscape:window-width="1920"
     inkscape:window-height="1011"
     inkscape:window-x="0"
     inkscape:window-y="32"
     inkscape:window-maximized="1"
     inkscape:current-layer="svg4" />
  <path
     d="M44.2533 9.91946H34.1344V8.1088C34.1344 5.97356 32.3974 4.23633 30.262 4.23633H17.738C15.6029 4.23633 13.8656 5.97343 13.8656 8.1088V9.91946H3.74683C1.68082 9.91946 0 11.6001 0 13.666V40.0167C0 42.0826 1.68082 43.7634 3.74683 43.7634H44.2532C46.3192 43.7634 48 42.0826 48 40.0167V13.666C48.0001 11.6003 46.3194 9.91946 44.2533 9.91946ZM17.1379 8.1088C17.1379 7.7778 17.4072 7.50844 17.7381 7.50844H30.2622C30.593 7.50844 30.8624 7.7778 30.8624 8.1088V9.91946H17.1379V8.1088ZM3.74696 13.1916H44.2533C44.5151 13.1916 44.728 13.4044 44.728 13.666V22.2518C39.6578 24.1326 32.0101 25.2435 23.9863 25.2435C15.9801 25.2435 8.34283 24.1364 3.27211 22.2619V13.666C3.27224 13.4044 3.48519 13.1916 3.74696 13.1916ZM44.2533 40.4913H3.74696C3.48519 40.4913 3.27224 40.2785 3.27224 40.0167V25.7285C7.91314 27.2594 14.0148 28.2163 20.6644 28.4561C20.664 28.4751 20.6617 28.4934 20.6617 28.5126V29.2342C20.6617 30.5869 21.7621 31.6874 23.115 31.6874H24.8854C26.2383 31.6874 27.3387 30.5869 27.3387 29.2342V28.5126C27.3387 28.4934 27.3361 28.4745 27.336 28.4553C33.9897 28.2134 40.0905 27.2538 44.7283 25.7198V40.0168C44.728 40.2785 44.5151 40.4913 44.2533 40.4913Z"
     fill="#0227AB"
     id="path2"
     style="fill:#2158be;fill-opacity:1" />
</svg>
