<?xml version="1.0" encoding="UTF-8" standalone="no"?>
<svg
   width="48"
   height="48"
   viewBox="0 0 48 48"
   fill="none"
   version="1.1"
   id="svg24"
   sodipodi:docname="check.svg"
   inkscape:version="1.1 (c68e22c387, 2021-05-23)"
   xmlns:inkscape="http://www.inkscape.org/namespaces/inkscape"
   xmlns:sodipodi="http://sodipodi.sourceforge.net/DTD/sodipodi-0.dtd"
   xmlns="http://www.w3.org/2000/svg"
   xmlns:svg="http://www.w3.org/2000/svg">
  <sodipodi:namedview
     id="namedview26"
     pagecolor="#ffffff"
     bordercolor="#666666"
     borderopacity="1.0"
     inkscape:pageshadow="2"
     inkscape:pageopacity="0.0"
     inkscape:pagecheckerboard="0"
     showgrid="false"
     inkscape:zoom="17.354167"
     inkscape:cx="24"
     inkscape:cy="23.971188"
     inkscape:window-width="1920"
     inkscape:window-height="1011"
     inkscape:window-x="0"
     inkscape:window-y="32"
     inkscape:window-maximized="1"
     inkscape:current-layer="svg24" />
  <g
     clip-path="url(#clip0)"
     id="g14"
     style="fill:#2158be;fill-opacity:1">
    <path
       d="M0.999999 3.68066C0.447714 3.68066 0 4.12838 0 4.68066V42.1198C0 42.6721 0.447715 43.1198 1 43.1198H47C47.5523 43.1198 48 42.6721 48 42.1198V4.68066C48 4.12838 47.5523 3.68066 47 3.68066H0.999999ZM45.1616 39.2814C45.1616 39.8337 44.7139 40.2814 44.1616 40.2814H3.83837C3.28609 40.2814 2.83837 39.8337 2.83837 39.2814V7.51903C2.83837 6.96675 3.28609 6.51904 3.83837 6.51904H44.1616C44.7139 6.51904 45.1616 6.96675 45.1616 7.51904V39.2814Z"
       fill="#0227AB"
       id="path2"
       style="fill:#2158be;fill-opacity:1" />
    <g
       clip-path="url(#clip1)"
       id="g6"
       style="fill:#2158be;fill-opacity:1">
      <path
         d="M6.98215 28.9087H9.2731V30.8726C9.2731 30.9681 9.30367 31.0464 9.36518 31.1075C9.42652 31.169 9.50494 31.1998 9.60046 31.1998H11.3083C11.397 31.1998 11.4737 31.169 11.5384 31.1075C11.6032 31.0464 11.6355 30.9681 11.6355 30.8726V28.9087H16.8003C16.8956 28.9087 16.9741 28.8783 17.0355 28.8168C17.0971 28.7553 17.1276 28.677 17.1276 28.5815V27.2723C17.1276 27.1773 17.0971 27.0985 17.0355 27.0374C16.9742 26.9759 16.8956 26.9451 16.8003 26.9451H11.6354V25.7382H15.1126C16.4762 25.7382 17.5891 25.3227 18.4518 24.4906C19.3142 23.6593 19.7456 22.5854 19.7456 21.269C19.7456 19.9535 19.3142 18.8796 18.4518 18.0475C17.5893 17.2161 16.4762 16.7998 15.1126 16.7998H9.60029C9.50474 16.7998 9.42649 16.8305 9.36501 16.8917C9.30367 16.9532 9.27293 17.032 9.27293 17.127V23.5601H6.98215C6.88662 23.5601 6.80835 23.5924 6.74687 23.6572C6.68555 23.722 6.65479 23.7987 6.65479 23.8873V25.411C6.65479 25.5065 6.68536 25.5848 6.74687 25.6463C6.80838 25.7078 6.88645 25.7382 6.98215 25.7382H9.2731V26.9451H6.98215C6.88662 26.9451 6.80835 26.9758 6.74687 27.0374C6.68555 27.0985 6.65479 27.1771 6.65479 27.2723V28.5814C6.65479 28.677 6.68536 28.7553 6.74687 28.8167C6.80835 28.8783 6.8866 28.9087 6.98215 28.9087ZM11.6354 18.9784H14.9081C15.6307 18.9784 16.2136 19.1897 16.6569 19.6124C17.1 20.0352 17.3217 20.5876 17.3217 21.2692C17.3217 21.9511 17.1 22.5037 16.6569 22.9259C16.2136 23.349 15.6307 23.5603 14.9081 23.5603H11.6354V18.9784Z"
         fill="#0227AB"
         id="path4"
         style="fill:#2158be;fill-opacity:1" />
    </g>
    <path
       d="M23.407 23.2969C23.407 22.7446 23.8547 22.2969 24.407 22.2969H39.9986C40.5509 22.2969 40.9986 22.7446 40.9986 23.2969V24.1352C40.9986 24.6875 40.5509 25.1352 39.9986 25.1352H24.407C23.8547 25.1352 23.407 24.6875 23.407 24.1352V23.2969Z"
       fill="#0227AB"
       id="path8"
       style="fill:#2158be;fill-opacity:1" />
    <path
       d="M22.8 17.7788C22.8 17.2265 23.2478 16.7788 23.8 16.7788H34.1628C34.7151 16.7788 35.1628 17.2265 35.1628 17.7788V18.6172C35.1628 19.1695 34.7151 19.6172 34.1628 19.6172H23.8C23.2478 19.6172 22.8 19.1695 22.8 18.6172V17.7788Z"
       fill="#0227AB"
       id="path10"
       style="fill:#2158be;fill-opacity:1" />
    <path
       d="M22.207 28.8164C22.207 28.2641 22.6547 27.8164 23.207 27.8164H39.9987C40.551 27.8164 40.9987 28.2641 40.9987 28.8164V29.6548C40.9987 30.2071 40.551 30.6548 39.9987 30.6548H23.207C22.6547 30.6548 22.207 30.2071 22.207 29.6548V28.8164Z"
       fill="#0227AB"
       id="path12"
       style="fill:#2158be;fill-opacity:1" />
  </g>
  <defs
     id="defs22">
    <clipPath
       id="clip0">
      <rect
         width="48"
         height="48"
         fill="white"
         id="rect16" />
    </clipPath>
    <clipPath
       id="clip1">
      <rect
         width="14.4"
         height="14.4"
         fill="white"
         transform="translate(6 16.7998)"
         id="rect19" />
    </clipPath>
  </defs>
</svg>
