<?xml version="1.0" encoding="UTF-8" standalone="no"?>
<svg
   width="48"
   height="48"
   viewBox="0 0 48 48"
   fill="none"
   version="1.1"
   id="svg13"
   sodipodi:docname="coins.svg"
   inkscape:version="1.1 (c68e22c387, 2021-05-23)"
   xmlns:inkscape="http://www.inkscape.org/namespaces/inkscape"
   xmlns:sodipodi="http://sodipodi.sourceforge.net/DTD/sodipodi-0.dtd"
   xmlns="http://www.w3.org/2000/svg"
   xmlns:svg="http://www.w3.org/2000/svg">
  <sodipodi:namedview
     id="namedview15"
     pagecolor="#ffffff"
     bordercolor="#666666"
     borderopacity="1.0"
     inkscape:pageshadow="2"
     inkscape:pageopacity="0.0"
     inkscape:pagecheckerboard="0"
     showgrid="false"
     inkscape:zoom="17.354167"
     inkscape:cx="24"
     inkscape:cy="23.971188"
     inkscape:window-width="1920"
     inkscape:window-height="1011"
     inkscape:window-x="0"
     inkscape:window-y="32"
     inkscape:window-maximized="1"
     inkscape:current-layer="svg13" />
  <g
     clip-path="url(#clip0)"
     id="g6"
     style="fill:#2158be;fill-opacity:1;stroke:#2158be;stroke-opacity:1">
    <path
       d="M24 36.1875C23.4825 36.1875 23.0625 36.6075 23.0625 37.125C23.0625 37.6425 23.4825 38.0625 24 38.0625C24.5175 38.0625 24.9375 37.6425 24.9375 37.125C24.9375 36.6075 24.5175 36.1875 24 36.1875Z"
       fill="#0227AB"
       stroke="#0227AB"
       id="path2"
       style="fill:#2158be;fill-opacity:1;stroke:#2158be;stroke-opacity:1" />
    <path
       d="M43.9769 5.75344C41.6699 4.82428 38.6705 4.3125 35.5312 4.3125C32.392 4.3125 29.3926 4.82428 27.0856 5.75344C25.7223 6.30253 24.6814 6.97359 24 7.72659C23.3186 6.97359 22.2777 6.30262 20.9144 5.75353C18.6074 4.82428 15.608 4.3125 12.4688 4.3125C9.32953 4.3125 6.33009 4.82428 4.02309 5.75344C1.42875 6.79837 0 8.28431 0 9.9375V32.4375C0 34.0907 1.42875 35.5766 4.02309 36.6216C6.16875 37.4858 8.91356 37.9883 11.8125 38.0544V38.0625C11.8125 41.2693 17.052 43.6875 24 43.6875C30.948 43.6875 36.1875 41.2693 36.1875 38.0625V38.0544C39.0864 37.9883 41.8312 37.4858 43.9769 36.6216C46.5713 35.5766 48 34.0907 48 32.4375V9.9375C48 8.28431 46.5713 6.79837 43.9769 5.75344ZM46.125 26.8125C46.125 27.6128 45.0335 28.5496 43.2764 29.2573C41.3747 30.0233 38.8215 30.4867 36.1875 30.5532V26.8125C36.1875 26.8098 36.1873 26.8071 36.1873 26.8044C39.0863 26.7383 41.8312 26.2358 43.977 25.3716C44.8192 25.0324 45.5376 24.6465 46.1251 24.2237L46.125 26.8125ZM23.0625 15.5625C23.0625 16.3628 21.971 17.2996 20.2139 18.0073C18.1545 18.8368 15.3315 19.3125 12.4688 19.3125C9.606 19.3125 6.783 18.8368 4.72359 18.0073C2.96653 17.2996 1.875 16.3628 1.875 15.5625V12.9737C2.46253 13.3965 3.18094 13.7824 4.02309 14.1216C6.33009 15.0507 9.32953 15.5625 12.4688 15.5625C15.608 15.5625 18.6074 15.0507 20.9144 14.1216C21.7566 13.7824 22.475 13.3965 23.0625 12.9737V15.5625ZM4.02309 19.7466C6.33009 20.6757 9.32953 21.1875 12.4688 21.1875C15.608 21.1875 18.6074 20.6757 20.9144 19.7466C21.7566 19.4074 22.475 19.0215 23.0625 18.5987V21.2041C20.6372 21.2862 18.3113 21.6843 16.43 22.3468C14.5431 23.0114 13.1853 23.8976 12.4469 24.9372C9.59166 24.9348 6.77775 24.4597 4.72359 23.6323C2.96653 22.9246 1.875 21.9878 1.875 21.1875V18.5987C2.46253 19.0215 3.18094 19.4074 4.02309 19.7466ZM1.875 24.2237C2.46253 24.6465 3.18094 25.0324 4.02309 25.3716C6.16884 26.2358 8.91375 26.7383 11.8128 26.8044C11.8128 26.8072 11.8126 26.8099 11.8126 26.8125V30.5532C9.1785 30.4867 6.62541 30.0233 4.72369 29.2573C2.96653 28.5496 1.875 27.6128 1.875 26.8125V24.2237ZM13.7867 26.3519C14.4815 24.735 18.4916 23.0625 24 23.0625C29.5084 23.0625 33.5185 24.735 34.2126 26.35C34.2799 26.5076 34.3125 26.6588 34.3125 26.8125C34.3125 27.6367 33.2963 28.5523 31.5942 29.2615C29.5808 30.1005 26.8838 30.5625 24 30.5625C21.1162 30.5625 18.4192 30.1005 16.4058 29.2615C14.7037 28.5523 13.6875 27.6367 13.6875 26.8125C13.6875 26.6588 13.7202 26.5076 13.7867 26.3519ZM46.125 21.1875C46.125 21.9878 45.0335 22.9246 43.2764 23.6323C41.2223 24.4597 38.4085 24.9348 35.5534 24.9372C34.8156 23.8982 33.4576 23.0116 31.57 22.3468C29.6888 21.6842 27.3628 21.2862 24.9375 21.2041V18.5987C25.525 19.0215 26.2434 19.4074 27.0856 19.7466C29.3926 20.6757 32.392 21.1875 35.5312 21.1875C38.6705 21.1875 41.6699 20.6757 43.9769 19.7466C44.8191 19.4074 45.5375 19.0215 46.125 18.5987V21.1875ZM46.125 15.5625C46.125 16.3628 45.0335 17.2996 43.2764 18.0073C41.217 18.8368 38.394 19.3125 35.5312 19.3125C32.6685 19.3125 29.8455 18.8368 27.7861 18.0073C26.029 17.2996 24.9375 16.3628 24.9375 15.5625V12.9737C25.525 13.3965 26.2434 13.7824 27.0856 14.1216C29.3926 15.0507 32.392 15.5625 35.5312 15.5625C38.6705 15.5625 41.6699 15.0507 43.9769 14.1216C44.8191 13.7824 45.5375 13.3965 46.125 12.9737V15.5625ZM27.7861 7.49269C29.8455 6.66319 32.6685 6.1875 35.5312 6.1875C38.394 6.1875 41.217 6.66319 43.2764 7.49269C45.0335 8.20041 46.125 9.13716 46.125 9.9375C46.125 10.7378 45.0335 11.6746 43.2764 12.3823C41.217 13.2118 38.394 13.6875 35.5312 13.6875C32.6685 13.6875 29.8455 13.2118 27.7861 12.3823C26.029 11.6746 24.9375 10.7378 24.9375 9.9375C24.9375 9.13716 26.029 8.20041 27.7861 7.49269ZM4.72359 7.49269C6.783 6.66319 9.606 6.1875 12.4688 6.1875C15.3315 6.1875 18.1545 6.66319 20.2139 7.49269C21.971 8.20041 23.0625 9.13716 23.0625 9.9375C23.0625 10.7378 21.971 11.6746 20.2139 12.3823C18.1545 13.2118 15.3315 13.6875 12.4688 13.6875C9.606 13.6875 6.783 13.2118 4.72359 12.3823C2.96653 11.6746 1.875 10.7378 1.875 9.9375C1.875 9.13716 2.96653 8.20041 4.72359 7.49269ZM4.72359 34.8823C2.96653 34.1746 1.875 33.2378 1.875 32.4375V29.8487C2.46253 30.2715 3.18094 30.6574 4.02309 30.9966C6.16875 31.8608 8.91356 32.3633 11.8125 32.4294V36.1783C9.17841 36.1117 6.62531 35.6483 4.72359 34.8823ZM31.5942 40.5115C29.5808 41.3505 26.8838 41.8125 24 41.8125C21.1162 41.8125 18.4192 41.3505 16.4058 40.5115C14.7037 39.8023 13.6875 38.8867 13.6875 38.0625V35.5283C13.8998 35.682 14.1345 35.8347 14.3948 35.9853C15.8506 36.8277 17.8314 37.4509 20.1232 37.7873C20.1695 37.794 20.2152 37.7973 20.2606 37.7973C20.7181 37.7973 21.1185 37.4619 21.1869 36.9958C21.2621 36.4836 20.9077 36.0073 20.3956 35.9321C16.0386 35.2925 13.6875 33.6543 13.6875 32.4375V29.895C15.8094 31.4477 19.555 32.4375 24 32.4375C28.445 32.4375 32.1906 31.4477 34.3125 29.895V32.4375C34.3125 33.6543 31.9614 35.2925 27.6044 35.9321C27.0922 36.0073 26.7378 36.4836 26.8131 36.9958C26.8815 37.462 27.2819 37.7973 27.7394 37.7973C27.7847 37.7973 27.8306 37.794 27.8767 37.7873C30.1685 37.4509 32.1493 36.8278 33.6052 35.9853C33.8654 35.8347 34.1002 35.682 34.3125 35.5283V38.0625C34.3125 38.8867 33.2963 39.8023 31.5942 40.5115ZM43.2764 34.8823C41.3747 35.6483 38.8215 36.1117 36.1875 36.1782V32.4293C39.0864 32.3632 41.8312 31.8607 43.9769 30.9965C44.8191 30.6573 45.5375 30.2714 46.125 29.8486V32.4375C46.125 33.2378 45.0335 34.1746 43.2764 34.8823Z"
       fill="#0227AB"
       stroke="#0227AB"
       id="path4"
       style="fill:#2158be;fill-opacity:1;stroke:#2158be;stroke-opacity:1" />
  </g>
  <defs
     id="defs11">
    <clipPath
       id="clip0">
      <rect
         width="48"
         height="48"
         fill="white"
         id="rect8" />
    </clipPath>
  </defs>
</svg>
