<?xml version="1.0" encoding="UTF-8" standalone="no"?>
<svg
   aria-hidden="true"
   focusable="false"
   data-prefix="far"
   data-icon="file-alt"
   class="svg-inline--fa fa-file-alt fa-w-12"
   role="img"
   viewBox="0 0 1.75 2.333333"
   version="1.1"
   id="svg4"
   sodipodi:docname="file.svg"
   inkscape:version="1.1 (c68e22c387, 2021-05-23)"
   width="28"
   height="37.333332"
   xmlns:inkscape="http://www.inkscape.org/namespaces/inkscape"
   xmlns:sodipodi="http://sodipodi.sourceforge.net/DTD/sodipodi-0.dtd"
   xmlns="http://www.w3.org/2000/svg"
   xmlns:svg="http://www.w3.org/2000/svg">
  <defs
     id="defs8" />
  <sodipodi:namedview
     id="namedview6"
     pagecolor="#ffffff"
     bordercolor="#666666"
     borderopacity="1.0"
     inkscape:pageshadow="2"
     inkscape:pageopacity="0.0"
     inkscape:pagecheckerboard="0"
     showgrid="false"
     inkscape:zoom="6.5078124"
     inkscape:cx="42.026411"
     inkscape:cy="54.242498"
     inkscape:window-width="1920"
     inkscape:window-height="1011"
     inkscape:window-x="0"
     inkscape:window-y="32"
     inkscape:window-maximized="1"
     inkscape:current-layer="svg4"
     units="px"
     fit-margin-top="0"
     fit-margin-left="0"
     fit-margin-right="0"
     fit-margin-bottom="0"
     viewbox-height="128" />
  <path
     fill="currentColor"
     d="m 1.3124999,1.1302082 v 0.1276042 c 0,0.030078 -0.02461,0.054688 -0.054688,0.054688 H 0.49218746 c -0.0300781,0 -0.0546876,-0.02461 -0.0546876,-0.054688 V 1.1302082 c 0,-0.030078 0.0246093,-0.054688 0.0546876,-0.054688 H 1.2578124 c 0.030078,0 0.054688,0.02461 0.054687,0.054688 z m -0.054687,0.328125 H 0.49218746 c -0.0300781,0 -0.0546876,0.024609 -0.0546876,0.054687 v 0.1276043 c 0,0.030078 0.0246093,0.054687 0.0546876,0.054687 H 1.2578124 c 0.030078,0 0.054688,-0.02461 0.054688,-0.054687 V 1.5130203 c 0,-0.030078 -0.02461,-0.054687 -0.054687,-0.054687 z M 1.7499999,0.60110672 V 2.1145831 c 0,0.1207683 -0.097982,0.21875 -0.21875,0.21875 H 0.21874998 C 0.09798176,2.3333331 0,2.2353514 0,2.1145831 V 0.21874998 C 0,0.09798176 0.09798176,0 0.21874998,0 H 1.1488932 c 0.057878,0 0.1134764,0.02324218 0.1544921,0.0642578 l 0.3823568,0.38235675 c 0.041016,0.0405599 0.064257,0.0966145 0.064258,0.15449217 z M 1.1666665,0.23652342 V 0.58333328 H 1.5134764 Z M 1.5312499,2.1145831 V 0.80208327 H 1.0572917 c -0.060612,0 -0.1093751,-0.0487631 -0.1093751,-0.109375 V 0.21874998 H 0.21874998 V 2.1145831 Z"
     id="path2"
     style="fill:#2158be;fill-opacity:1;stroke-width:0.00455729" />
</svg>
