<?xml version="1.0" encoding="UTF-8" standalone="no"?>
<svg
   width="48"
   height="48"
   viewBox="0 0 48 48"
   fill="none"
   version="1.1"
   id="svg20"
   sodipodi:docname="hand.svg"
   inkscape:version="1.1 (c68e22c387, 2021-05-23)"
   xmlns:inkscape="http://www.inkscape.org/namespaces/inkscape"
   xmlns:sodipodi="http://sodipodi.sourceforge.net/DTD/sodipodi-0.dtd"
   xmlns="http://www.w3.org/2000/svg"
   xmlns:svg="http://www.w3.org/2000/svg">
  <sodipodi:namedview
     id="namedview22"
     pagecolor="#ffffff"
     bordercolor="#666666"
     borderopacity="1.0"
     inkscape:pageshadow="2"
     inkscape:pageopacity="0.0"
     inkscape:pagecheckerboard="0"
     showgrid="false"
     inkscape:zoom="17.354167"
     inkscape:cx="24"
     inkscape:cy="23.971188"
     inkscape:window-width="1920"
     inkscape:window-height="1011"
     inkscape:window-x="0"
     inkscape:window-y="32"
     inkscape:window-maximized="1"
     inkscape:current-layer="svg20" />
  <g
     clip-path="url(#clip0)"
     id="g10"
     style="fill:#2158be;fill-opacity:1">
    <path
       d="M31.1128 23.7483C37.662 23.7483 42.99 18.4216 42.99 11.8741C42.99 5.32659 37.6619 0 31.1128 0C24.5637 0 19.2356 5.32669 19.2356 11.8742C19.2356 18.4217 24.5637 23.7483 31.1128 23.7483ZM31.1128 2.8125C36.1112 2.8125 40.1776 6.87759 40.1776 11.8742C40.1776 16.8708 36.1112 20.9359 31.1128 20.9359C26.1145 20.9359 22.048 16.8708 22.048 11.8742C22.048 6.87759 26.1145 2.8125 31.1128 2.8125Z"
       fill="#0227AB"
       id="path2"
       style="fill:#2158be;fill-opacity:1" />
    <path
       d="M47.033 26.9237C45.5121 24.9656 42.7663 24.5972 40.7899 25.9684L35.4395 29.5479C34.6959 28.1635 33.234 27.2198 31.5554 27.2198H27.7388C25.8122 25.4129 23.2402 24.387 20.5872 24.387C18.5961 24.387 16.6591 24.9495 14.9859 26.0137C13.4783 26.9727 12.2452 28.2974 11.3978 29.8613L10.6813 30.2994L10.4957 29.7565C10.2444 29.0218 9.44532 28.6296 8.71051 28.8807L0.95185 31.5318C0.217319 31.7828 -0.175306 32.5826 0.0759437 33.3175L4.77029 47.0483C5.02163 47.7835 5.82104 48.175 6.55548 47.9242L14.3141 45.2732C15.007 45.0364 15.461 44.2801 15.1745 43.4421L27.4858 43.061C30.8386 43.0565 34.0538 42.0268 36.785 40.0829L46.0692 33.4789C48.1977 31.9639 48.6371 28.9875 47.033 26.9237ZM6.9766 44.8081L3.1921 33.7385L8.28938 31.9968C8.83848 33.603 11.5072 41.4087 12.0739 43.0665L6.9766 44.8081ZM44.4388 31.1872L35.1546 37.7912C32.896 39.3987 30.2364 40.2484 27.4635 40.2484C27.4491 40.2484 27.4344 40.2485 27.42 40.249L14.2225 40.6575L11.6135 33.0259L13.1993 32.0562C13.1996 32.056 13.1999 32.0557 13.2003 32.0554C13.4337 31.9126 13.6163 31.7029 13.7276 31.4759C15.0218 28.838 17.6503 27.1993 20.5872 27.1993C22.7095 27.1993 24.6807 28.0489 26.1377 29.5917C26.406 29.8759 26.7915 30.032 27.16 30.032H31.5554C32.434 30.032 33.1488 30.7464 33.1488 31.6246C33.1488 32.4935 32.4459 33.2171 31.5554 33.2171H23.6214C22.8448 33.2171 22.2153 33.8467 22.2153 34.6234C22.2153 35.4 22.8449 36.0296 23.6214 36.0296H31.5554C32.7332 36.0296 33.8397 35.571 34.6703 34.7392C35.2513 34.1584 35.6495 33.4438 35.8373 32.6653L42.3643 28.2987C42.3722 28.2934 42.38 28.2881 42.3878 28.2827C43.1574 27.745 44.2236 27.8913 44.8122 28.6491C45.4329 29.4479 45.2633 30.6004 44.4388 31.1872Z"
       fill="#0227AB"
       id="path4"
       style="fill:#2158be;fill-opacity:1" />
    <g
       clip-path="url(#clip1)"
       id="g8"
       style="fill:#2158be;fill-opacity:1">
      <path
         d="M26.0184 16.0907H27.9275V17.7273C27.9275 17.8069 27.953 17.8721 28.0043 17.9231C28.0554 17.9744 28.1207 18 28.2003 18H29.6236C29.6974 18 29.7613 17.9744 29.8153 17.9231C29.8693 17.8721 29.8962 17.8069 29.8962 17.7273V16.0907H34.2002C34.2796 16.0907 34.345 16.0654 34.3962 16.0141C34.4475 15.9629 34.473 15.8977 34.473 15.818V14.7271C34.473 14.6479 34.4475 14.5823 34.3962 14.5313C34.3451 14.4801 34.2796 14.4544 34.2002 14.4544H29.8961V13.4487H32.7938C33.9301 13.4487 34.8575 13.1024 35.5765 12.409C36.2951 11.7162 36.6547 10.8214 36.6547 9.72434C36.6547 8.62805 36.2951 7.73317 35.5765 7.03972C34.8577 6.34695 33.9301 6 32.7938 6H28.2002C28.1206 6 28.0554 6.02562 28.0041 6.07659C27.953 6.12785 27.9274 6.19348 27.9274 6.27266V11.6336H26.0184C25.9388 11.6336 25.8736 11.6605 25.8223 11.7145C25.7712 11.7685 25.7456 11.8324 25.7456 11.9062V13.176C25.7456 13.2556 25.7711 13.3208 25.8223 13.3721C25.8736 13.4234 25.9387 13.4487 26.0184 13.4487H27.9275V14.4544H26.0184C25.9388 14.4544 25.8736 14.48 25.8223 14.5313C25.7712 14.5823 25.7456 14.6478 25.7456 14.7271V15.818C25.7456 15.8977 25.7711 15.9629 25.8223 16.0141C25.8736 16.0654 25.9388 16.0907 26.0184 16.0907ZM29.8961 7.81552H32.6234C33.2256 7.81552 33.7113 7.9916 34.0807 8.34386C34.45 8.69615 34.6347 9.15653 34.6347 9.72448C34.6347 10.2927 34.45 10.7532 34.0807 11.1051C33.7113 11.4577 33.2255 11.6337 32.6234 11.6337H29.8961V7.81552Z"
         fill="#0227AB"
         id="path6"
         style="fill:#2158be;fill-opacity:1" />
    </g>
  </g>
  <defs
     id="defs18">
    <clipPath
       id="clip0">
      <rect
         width="48"
         height="48"
         fill="white"
         id="rect12" />
    </clipPath>
    <clipPath
       id="clip1">
      <rect
         width="12"
         height="12"
         fill="white"
         transform="translate(25.2 6)"
         id="rect15" />
    </clipPath>
  </defs>
</svg>
