<svg width="80" height="80" viewBox="0 0 80 80" fill="none" xmlns="http://www.w3.org/2000/svg">
<g clip-path="url(#clip0)">
<path d="M67.369 45.1241H62.5891C61.9419 45.1241 61.4172 45.6486 61.4172 46.296C61.4172 46.9433 61.9419 47.4678 62.5891 47.4678H67.369C68.0161 47.4678 68.5408 46.9433 68.5408 46.296C68.5408 45.6486 68.0161 45.1241 67.369 45.1241Z" fill="black"/>
<path d="M74.9609 5.45642H54.3164C51.5378 5.45642 49.2773 7.71705 49.2773 10.4955V27.3697H13.6573C12.4002 27.3697 11.3773 28.3925 11.3773 29.6497V63.6153H8.40859V27.5153C8.40859 25.7981 9.80563 24.401 11.523 24.401H44.9475C45.5947 24.401 46.1194 23.8764 46.1194 23.2291C46.1194 22.5817 45.5947 22.0572 44.9475 22.0572H11.523C8.51328 22.0572 6.06484 24.5056 6.06484 27.5153V63.6153H3.34172C1.49906 63.6153 0 65.1144 0 66.957C0 71.1402 3.40328 74.5436 7.58656 74.5436H72.4134C76.5967 74.5436 80 71.1403 80 66.957C80 65.1144 78.5009 63.6152 76.6583 63.6152H73.9352V56.1472C73.9352 55.4999 73.4105 54.9753 72.7633 54.9753C72.1161 54.9753 71.5914 55.4999 71.5914 56.1472V63.6152H68.6227V51.8174H74.9608C77.7394 51.8174 79.9998 49.5567 79.9998 46.7781V10.4955C80 7.71705 77.7395 5.45642 74.9609 5.45642ZM70.1747 40.9413V39.3817C70.1747 38.7344 69.65 38.2099 69.0028 38.2099C68.3556 38.2099 67.8309 38.7344 67.8309 39.3817V40.9413H62.1273V39.3817C62.1273 38.7344 61.6027 38.2099 60.9555 38.2099C60.3083 38.2099 59.7836 38.7344 59.7836 39.3817V40.9413H57.0148V37.9649C57.0148 34.8414 59.5559 32.3002 62.6794 32.3002H67.2789C70.4023 32.3002 72.9434 34.8414 72.9434 37.9649V40.9413H70.1747ZM64.9792 29.9566C62.8981 29.9566 61.205 28.2635 61.205 26.1825C61.205 24.1016 62.8981 22.4085 64.9792 22.4085C67.0603 22.4085 68.7533 24.1016 68.7533 26.1825C68.7533 28.2635 67.0603 29.9566 64.9792 29.9566ZM69.5197 30.2778C70.4995 29.1927 71.097 27.7561 71.097 26.1824C71.097 22.8089 68.3527 20.0645 64.9792 20.0645C61.6058 20.0645 58.8613 22.8089 58.8613 26.1824C58.8613 27.7561 59.4589 29.1927 60.4388 30.2778C57.1105 31.2497 54.6711 34.3269 54.6711 37.9649V40.9413H51.6209V13.7092H77.6562V40.9413H75.2872V37.9649C75.2872 34.3269 72.848 31.2497 69.5197 30.2778ZM54.3164 7.80017H74.9609C76.4472 7.80017 77.6562 9.00923 77.6562 10.4955V11.3655H51.6209V10.4955C51.6209 9.00923 52.83 7.80017 54.3164 7.80017ZM33.6425 41.5681C33.2886 41.4138 32.9881 41.1455 32.7955 40.7956C32.0705 39.4797 30.6869 38.6622 29.1844 38.6622H22.3059C20.9659 38.6622 19.8759 37.572 19.8759 36.2322V34.6719H30.3478C30.6892 34.6719 30.687 35.0856 30.817 35.3483C31.1973 36.3997 32.2041 37.1063 33.3222 37.1063C33.4987 37.1063 33.6425 37.25 33.6425 37.4266V41.5681ZM20.3325 42.9345L20.7367 42.9344C21.3853 42.9341 21.9108 42.4064 21.9081 41.7577L21.9048 40.9878C22.0372 40.9989 22.1706 41.006 22.3058 41.006H29.1842C29.8325 41.006 30.4295 41.3588 30.7423 41.9266C31.3516 43.0327 32.4266 43.7844 33.6458 43.9969L33.6486 45.27L33.2594 45.2717C32.6219 45.2745 32.1036 45.7863 32.0927 46.4236C32.0425 49.3697 29.5711 51.2663 27.0286 51.3117C24.452 51.288 21.9984 49.4021 21.9241 46.4672C21.908 45.8319 21.3881 45.325 20.7525 45.325L20.3339 45.3253C20.082 45.3253 19.8769 45.1205 19.8767 44.8686L19.8756 43.3919C19.8758 43.1378 20.0817 42.9349 20.3325 42.9345ZM28.7894 53.4297C28.8578 53.9152 29.045 54.3697 29.3277 54.7581C27.9438 56.2095 25.5828 56.2113 24.1972 54.7581C24.5058 54.3339 24.6994 53.8303 24.75 53.2944C26.0955 53.7235 27.4098 53.7725 28.7894 53.4297ZM22.0956 55.9063C24.4223 58.9366 29.0772 58.9694 31.4292 55.9064C35.5605 56.8852 39.1945 59.3778 39.7313 63.6153H13.7936C14.3311 59.3706 17.975 56.8827 22.0956 55.9063ZM48.6759 65.9591C48.2114 67.1002 47.0919 67.9077 45.7859 67.9077H34.2142C32.9081 67.9077 31.7886 67.1003 31.3242 65.9591H48.6759ZM77.6562 66.957C77.6562 69.848 75.3044 72.1999 72.4134 72.1999H7.58656C4.69563 72.1999 2.34375 69.848 2.34375 66.957C2.34375 66.4067 2.79141 65.9589 3.34172 65.9589H28.8778C29.4158 68.4105 31.6034 70.2513 34.2141 70.2513H45.7858C48.3964 70.2513 50.5841 68.4105 51.122 65.9589H76.6581C77.2086 65.9591 77.6562 66.4067 77.6562 66.957ZM66.2791 63.6153H42.0897C41.5273 57.9658 36.6928 54.4867 31.3241 53.4874C30.9928 53.2052 31.1392 52.8308 31.1037 52.4233C32.9956 51.2033 34.0316 49.4625 34.3436 47.5183C35.2995 47.2327 35.997 46.3389 35.9928 45.2881C35.9916 43.651 35.9869 37.9249 35.9866 37.4269C35.9866 35.958 34.7916 34.7628 33.3225 34.7628C33.1881 34.7628 33.067 34.6778 33.0214 34.5516L32.8533 34.0863C32.473 33.0349 31.4663 32.3283 30.3481 32.3283H19.7934C18.5467 32.3283 17.5325 33.3425 17.5325 34.5892V36.2324C17.5325 37.8419 18.3339 39.2669 19.558 40.1319L19.5603 40.6985C18.4137 41.0255 17.5316 42.0891 17.5325 43.3938L17.5336 44.8706C17.5345 46.1906 18.4538 47.2999 19.6855 47.5933C19.9837 49.3405 20.8756 50.9194 22.4214 52.083C22.3748 52.8081 22.5492 53.1908 22.2011 53.4875C19.0902 54.0666 15.7667 55.6674 13.7214 58.1158V29.7135H49.2775V46.7783C49.2775 49.5569 51.538 51.8175 54.3166 51.8175H66.2792L66.2791 63.6153ZM74.9609 49.4738H54.3164C52.8302 49.4738 51.6211 48.2647 51.6211 46.7783V43.2852H77.6562V46.7783C77.6562 48.2647 76.4472 49.4738 74.9609 49.4738Z" fill="black"/>
<path d="M70.1745 39.3758V40.9353H72.9432V37.9589C72.9432 34.8355 70.4022 32.2942 67.2787 32.2942H62.6792C59.5557 32.2942 57.0146 34.8355 57.0146 37.9589V40.9353H59.7834V39.3758C59.7834 38.7284 60.3081 38.2039 60.9553 38.2039C61.6025 38.2039 62.1271 38.7284 62.1271 39.3758V40.9353H67.8307V39.3758C67.8307 38.7284 68.3554 38.2039 69.0026 38.2039C69.6498 38.2039 70.1745 38.7284 70.1745 39.3758Z" fill="#FF9400"/>
</g>
<defs>
<clipPath id="clip0">
<rect width="80" height="80" fill="white"/>
</clipPath>
</defs>
</svg>
