<svg width="80" height="80" viewBox="0 0 80 80" fill="none" xmlns="http://www.w3.org/2000/svg">
<path d="M33.958 30.5157C33.6713 30.5157 33.3963 30.4018 33.1936 30.199C32.9909 29.9963 32.877 29.7213 32.877 29.4346V24.227C32.877 23.9403 32.9909 23.6653 33.1936 23.4626C33.3963 23.2598 33.6713 23.1459 33.958 23.1459C34.2448 23.1459 34.5197 23.2598 34.7225 23.4626C34.9252 23.6653 35.0391 23.9403 35.0391 24.227V29.4346C35.0391 29.7213 34.9252 29.9963 34.7225 30.199C34.5197 30.4018 34.2448 30.5157 33.958 30.5157Z" fill="#FF9400" stroke="#FF9400"/>
<path d="M56.9837 76.3135C55.4048 76.341 53.864 75.8275 52.6172 74.8584C51.7153 74.156 50.6048 73.7746 49.4616 73.7746C48.3184 73.7746 47.2079 74.156 46.3059 74.8584C45.2054 75.7065 43.8764 76.2061 42.4897 76.293C42.3475 76.3037 42.2047 76.2858 42.0695 76.2405C41.9344 76.1951 41.8097 76.1232 41.7028 76.0289C41.5959 75.9346 41.509 75.8198 41.4471 75.6914C41.3853 75.563 41.3498 75.4235 41.3427 75.2811C41.3249 74.9949 41.4215 74.7135 41.6113 74.4986C41.8011 74.2837 42.0684 74.1529 42.3545 74.1351C43.3577 74.07 44.3161 73.6962 45.0983 73.0649C46.3579 72.1217 47.8891 71.6119 49.4627 71.6119C51.0362 71.6119 52.5674 72.1217 53.827 73.0649C54.7291 73.7682 55.8403 74.1502 56.9843 74.1502C58.1282 74.1502 59.2394 73.7682 60.1416 73.0649C61.3885 72.0961 62.9293 71.583 64.5081 71.6108C64.7948 71.6108 65.0698 71.7247 65.2725 71.9275C65.4752 72.1302 65.5891 72.4052 65.5891 72.6919C65.5891 72.9786 65.4752 73.2536 65.2725 73.4563C65.0698 73.6591 64.7948 73.773 64.5081 73.773C63.3608 73.7473 62.2419 74.1305 61.3513 74.8541C60.1045 75.8245 58.5634 76.3395 56.9837 76.3135Z" fill="black" stroke="black"/>
<path d="M24.0745 75.6432C23.892 75.6434 23.7123 75.5972 23.5524 75.5092C23.187 75.307 22.8562 75.0843 22.5254 74.8605C21.9684 74.4335 21.3383 74.1114 20.6659 73.9103C20.5261 73.8765 20.3945 73.8152 20.2787 73.73C20.1629 73.6447 20.0653 73.5372 19.9916 73.4138C19.9179 73.2904 19.8695 73.1535 19.8493 73.0111C19.8291 72.8688 19.8376 72.7238 19.8741 72.5848C19.9106 72.4457 19.9745 72.3153 20.062 72.2013C20.1496 72.0872 20.259 71.9917 20.3839 71.9205C20.5087 71.8492 20.6466 71.8036 20.7893 71.7862C20.932 71.7689 21.0768 71.7802 21.2151 71.8195C22.1249 72.0794 22.9797 72.5033 23.7372 73.0703C24.0151 73.2584 24.2918 73.4465 24.6021 73.6108C24.8118 73.7268 24.977 73.9092 25.0718 74.1294C25.1665 74.3495 25.1854 74.5949 25.1255 74.827C25.0656 75.059 24.9303 75.2646 24.7408 75.4114C24.5514 75.5581 24.3185 75.6378 24.0789 75.6378L24.0745 75.6432Z" fill="black" stroke="black"/>
<path d="M11.8487 76.3135C10.2734 76.3403 8.73639 75.8272 7.49307 74.8594C6.60288 74.1338 5.48347 73.7486 4.33523 73.7729C4.04851 73.7729 3.77353 73.659 3.57079 73.4563C3.36805 73.2536 3.25415 72.9786 3.25415 72.6919C3.25415 72.4051 3.36805 72.1302 3.57079 71.9274C3.77353 71.7247 4.04851 71.6108 4.33523 71.6108C5.91513 71.5834 7.45679 72.0977 8.70388 73.0681C9.59056 73.7904 10.7053 74.1736 11.8487 74.1492C12.2817 74.1521 12.7136 74.1064 13.1363 74.0129C13.4162 73.9502 13.7095 74.0011 13.9518 74.1546C14.194 74.3081 14.3654 74.5515 14.4282 74.8313C14.491 75.1112 14.4401 75.4045 14.2866 75.6468C14.1331 75.889 13.8897 76.0604 13.6098 76.1232C13.0317 76.2519 12.441 76.3157 11.8487 76.3135Z" fill="black" stroke="black"/>
<path d="M31.6445 74.4216C31.4032 74.4218 31.1688 74.3412 30.9786 74.1927C30.7884 74.0443 30.6534 73.8364 30.5949 73.6023C30.5365 73.3682 30.5581 73.1213 30.6562 72.9009C30.7543 72.6804 30.9233 72.4992 31.1364 72.3859C32.1446 71.8541 33.2714 71.5874 34.411 71.6108C34.613 71.607 34.815 71.6182 35.0153 71.6443C35.1557 71.6656 35.2906 71.7143 35.4121 71.7878C35.5337 71.8612 35.6396 71.9578 35.7238 72.0721C35.8081 72.1865 35.869 72.3163 35.903 72.4542C35.9371 72.592 35.9436 72.7353 35.9223 72.8757C35.901 73.0161 35.8523 73.1509 35.7789 73.2725C35.7055 73.394 35.6089 73.5 35.4945 73.5842C35.3802 73.6684 35.2504 73.7293 35.1125 73.7634C34.9746 73.7974 34.8314 73.804 34.691 73.7827C34.5969 73.7728 34.5023 73.7696 34.4077 73.773C33.621 73.7448 32.8409 73.9249 32.1461 74.2951C31.9916 74.3773 31.8195 74.4207 31.6445 74.4216Z" fill="black" stroke="black"/>
<path d="M49.4822 65.3427C49.2835 65.3424 49.0888 65.2874 48.9193 65.1836C48.7498 65.0798 48.6123 64.9314 48.5217 64.7545C48.4311 64.5777 48.3909 64.3793 48.4057 64.1812C48.4205 63.983 48.4896 63.7928 48.6055 63.6313C50.4685 61.0249 51.5774 57.9554 51.8102 54.76C52.043 51.5646 51.3908 48.3668 49.9253 45.5178C48.4597 42.6688 46.2374 40.2787 43.5024 38.61C40.7675 36.9413 37.6256 36.0584 34.4217 36.0584C31.2178 36.0584 28.0759 36.9413 25.3409 38.61C22.6059 40.2787 20.3837 42.6688 18.9181 45.5178C17.4525 48.3668 16.8004 51.5646 17.0332 54.76C17.266 57.9554 18.3748 61.0249 20.2379 63.6313C20.3323 63.7455 20.4023 63.8778 20.4435 64.0201C20.4847 64.1624 20.4962 64.3117 20.4772 64.4586C20.4583 64.6055 20.4094 64.747 20.3335 64.8742C20.2577 65.0015 20.1565 65.1118 20.0362 65.1983C19.9159 65.2847 19.7791 65.3456 19.6344 65.377C19.4896 65.4085 19.3399 65.4098 19.1946 65.381C19.0493 65.3521 18.9115 65.2938 18.7897 65.2094C18.6679 65.1251 18.5647 65.0167 18.4865 64.8908C16.3917 61.9612 15.1446 58.511 14.8824 54.919C14.6201 51.3271 15.3528 47.7323 16.9999 44.5295C18.6471 41.3267 21.145 38.6398 24.2193 36.7638C27.2937 34.8878 30.8256 33.8953 34.4271 33.8953C38.0286 33.8953 41.5605 34.8878 44.6348 36.7638C47.7092 38.6398 50.2071 41.3267 51.8542 44.5295C53.5014 47.7323 54.2341 51.3271 53.9718 54.919C53.7096 58.511 52.4625 61.9612 50.3676 64.8908C50.267 65.0315 50.134 65.1459 49.9799 65.2245C49.8259 65.3032 49.6552 65.3437 49.4822 65.3427Z" fill="#FF9400" stroke="#FF9400"/>
<path d="M22.1676 56.7071C21.9224 56.707 21.6846 56.6236 21.4931 56.4706C21.3015 56.3176 21.1677 56.104 21.1135 55.8649C20.4327 52.9133 20.831 49.8155 22.2363 47.1321C23.6417 44.4487 25.9612 42.3571 28.7751 41.2357C29.0414 41.1285 29.3393 41.1314 29.6033 41.2438C29.8674 41.3562 30.076 41.569 30.1833 41.8352C30.2905 42.1014 30.2876 42.3993 30.1752 42.6634C30.0627 42.9275 29.85 43.1361 29.5838 43.2433C27.2461 44.172 25.3188 45.9081 24.1517 48.1364C22.9845 50.3647 22.655 52.9376 23.2227 55.3881C23.2547 55.5268 23.259 55.6704 23.2354 55.8107C23.2118 55.951 23.1607 56.0853 23.085 56.2058C23.0094 56.3263 22.9107 56.4307 22.7947 56.513C22.6786 56.5953 22.5474 56.6539 22.4087 56.6854C22.3293 56.7015 22.2485 56.7088 22.1676 56.7071Z" fill="#FF9400" stroke="#FF9400"/>
<path d="M56.9827 67.8919C55.4023 67.9192 53.8602 67.4045 52.6129 66.4335C51.712 65.7288 50.6011 65.346 49.4573 65.346C48.3134 65.346 47.2025 65.7288 46.3016 66.4335C45.0424 67.38 43.5098 67.8918 41.9346 67.8918C40.3593 67.8918 38.8267 67.38 37.5675 66.4335C36.6668 65.7287 35.5561 65.3458 34.4124 65.3458C33.2687 65.3458 32.158 65.7287 31.2573 66.4335C29.9985 67.38 28.4662 67.8918 26.8913 67.8918C25.3164 67.8918 23.7841 67.38 22.5254 66.4335C21.637 65.7075 20.5189 65.3219 19.3719 65.3459C18.2239 65.3217 17.105 65.7077 16.2162 66.4346C14.971 67.4046 13.4311 67.9189 11.8529 67.8919C10.2738 67.9192 8.73309 67.4045 7.48752 66.4335C6.59904 65.7077 5.48104 65.3221 4.33401 65.3459C4.04729 65.3459 3.77231 65.232 3.56957 65.0293C3.36683 64.8266 3.25293 64.5516 3.25293 64.2649C3.25293 63.9781 3.36683 63.7032 3.56957 63.5004C3.77231 63.2977 4.04729 63.1838 4.33401 63.1838C5.91393 63.1579 7.45488 63.675 8.69942 64.6486C9.58899 65.3718 10.7068 65.755 11.8529 65.7297C12.9991 65.755 14.1169 65.3718 15.0064 64.6486C16.2516 63.6768 17.7926 63.1616 19.3719 63.1892C20.9511 63.1618 22.492 63.677 23.7373 64.6486C24.6377 65.3531 25.7481 65.7358 26.8913 65.7358C28.0346 65.7358 29.1449 65.3531 30.0454 64.6486C31.3044 63.7018 32.8371 63.1899 34.4124 63.1899C35.9877 63.1899 37.5204 63.7018 38.7794 64.6486C39.6804 65.3527 40.7911 65.7352 41.9346 65.7352C43.078 65.7352 44.1887 65.3527 45.0897 64.6486C46.3489 63.7017 47.8817 63.1897 49.4573 63.1897C51.0328 63.1897 52.5656 63.7017 53.8248 64.6486C54.7264 65.3534 55.8378 65.7363 56.9821 65.7363C58.1264 65.7363 59.2379 65.3534 60.1394 64.6486C61.3867 63.6777 62.9288 63.163 64.5092 63.1903C64.7959 63.1903 65.0708 63.3042 65.2736 63.5069C65.4763 63.7097 65.5902 63.9846 65.5902 64.2714C65.5902 64.5581 65.4763 64.8331 65.2736 65.0358C65.0708 65.2385 64.7959 65.3524 64.5092 65.3524C63.3607 65.3279 62.2411 65.7135 61.3513 66.44C60.1035 67.4084 58.5619 67.9208 56.9827 67.8919Z" fill="black" stroke="black"/>
<path d="M21.9858 33.9708C21.7958 33.971 21.6092 33.9211 21.4446 33.8262C21.2801 33.7313 21.1435 33.5948 21.0485 33.4303L18.4452 28.9211C18.3041 28.6729 18.2669 28.379 18.3417 28.1035C18.4165 27.828 18.5973 27.5933 18.8445 27.4505C19.0917 27.3078 19.3854 27.2686 19.6614 27.3416C19.9374 27.4145 20.1733 27.5937 20.3177 27.84L22.9187 32.3492C23.0136 32.5135 23.0635 32.6998 23.0636 32.8895C23.0636 33.0791 23.0138 33.2655 22.919 33.4298C22.8243 33.5941 22.688 33.7306 22.5238 33.8256C22.3596 33.9205 22.1733 33.9706 21.9836 33.9708H21.9858Z" fill="#FF9400" stroke="#FF9400"/>
<path d="M13.3439 42.9502C13.1542 42.951 12.9676 42.9014 12.8034 42.8065L8.29416 40.2032C8.04572 40.0599 7.8644 39.8237 7.7901 39.5466C7.71579 39.2696 7.75459 38.9744 7.89795 38.7259C8.04131 38.4775 8.27749 38.2962 8.55453 38.2219C8.83158 38.1476 9.1268 38.1863 9.37524 38.3297L13.8855 40.9329C14.0916 41.0519 14.2527 41.2356 14.3437 41.4555C14.4348 41.6753 14.4508 41.9191 14.3892 42.149C14.3276 42.3788 14.1919 42.582 14.0031 42.7268C13.8143 42.8717 13.5829 42.9502 13.345 42.9502H13.3439Z" fill="#FF9400" stroke="#FF9400"/>
<path d="M10.3514 55.0475H5.14383C4.8571 55.0475 4.58213 54.9336 4.37939 54.7309C4.17664 54.5282 4.06274 54.2532 4.06274 53.9665C4.06274 53.6797 4.17664 53.4048 4.37939 53.202C4.58213 52.9993 4.8571 52.8854 5.14383 52.8854H10.3514C10.6381 52.8854 10.9131 52.9993 11.1158 53.202C11.3186 53.4048 11.4325 53.6797 11.4325 53.9665C11.4325 54.2532 11.3186 54.5282 11.1158 54.7309C10.9131 54.9336 10.6381 55.0475 10.3514 55.0475Z" fill="#FF9400" stroke="#FF9400"/>
<path d="M63.6996 54.1222H58.4866C58.1999 54.1222 57.9249 54.0083 57.7222 53.8055C57.5194 53.6028 57.4055 53.3278 57.4055 53.0411C57.4055 52.7544 57.5194 52.4794 57.7222 52.2767C57.9249 52.0739 58.1999 51.96 58.4866 51.96H63.6952C63.982 51.96 64.2569 52.0739 64.4597 52.2767C64.6624 52.4794 64.7763 52.7544 64.7763 53.0411C64.7763 53.3278 64.6624 53.6028 64.4597 53.8055C64.2569 54.0083 63.982 54.1222 63.6952 54.1222H63.6996Z" fill="#FF9400" stroke="#FF9400"/>
<path d="M55.0356 42.1492C54.7977 42.1492 54.5663 42.0707 54.3775 41.9258C54.1887 41.7809 54.053 41.5778 53.9914 41.3479C53.9298 41.1181 53.9458 40.8743 54.0369 40.6544C54.1279 40.4346 54.289 40.2509 54.4951 40.1319L59.0054 37.5276C59.2538 37.3842 59.549 37.3454 59.8261 37.4197C60.1031 37.494 60.3393 37.6754 60.4827 37.9238C60.626 38.1722 60.6648 38.4675 60.5905 38.7445C60.5162 39.0216 60.3349 39.2577 60.0864 39.4011L55.5762 42.0043C55.412 42.0996 55.2255 42.1496 55.0356 42.1492Z" fill="#FF9400" stroke="#FF9400"/>
<path d="M46.0542 33.5135C45.8644 33.5135 45.678 33.4635 45.5137 33.3686C45.3493 33.2738 45.2129 33.1373 45.118 32.9729C45.0231 32.8086 44.9731 32.6222 44.9731 32.4324C44.9731 32.2426 45.0231 32.0562 45.118 31.8919L47.7223 27.3827C47.7928 27.2587 47.8871 27.15 47.9997 27.0626C48.1124 26.9753 48.2413 26.9111 48.3789 26.8737C48.5164 26.8364 48.6601 26.8266 48.8015 26.845C48.9428 26.8633 49.0792 26.9095 49.2027 26.9808C49.3261 27.0521 49.4343 27.1471 49.5209 27.2603C49.6075 27.3736 49.6708 27.5029 49.7073 27.6407C49.7437 27.7785 49.7525 27.9222 49.7332 28.0635C49.7139 28.2047 49.6668 28.3408 49.5947 28.4638L46.9926 32.973C46.8975 33.1376 46.7607 33.2743 46.5959 33.3692C46.4312 33.4641 46.2443 33.5139 46.0542 33.5135Z" fill="#FF9400" stroke="#FF9400"/>
<path d="M48.493 19.0746C48.2379 19.0744 47.9911 18.984 47.7962 18.8194C47.6014 18.6548 47.471 18.4266 47.4281 18.1751C46.9125 15.16 43.0152 15.1276 42.9698 15.1276C42.683 15.1276 42.4081 15.0137 42.2053 14.8109C42.0026 14.6082 41.8887 14.3332 41.8887 14.0465C41.8887 13.7598 42.0026 13.4848 42.2053 13.2821C42.4081 13.0793 42.683 12.9654 42.9698 12.9654H42.9773C44.0149 12.9577 45.0424 13.1692 45.9926 13.5861C46.9427 14.0031 47.794 14.616 48.4908 15.3849C49.1877 14.6161 50.0391 14.0032 50.9892 13.5863C51.9393 13.1694 52.9668 12.9578 54.0043 12.9654H54.0119C54.2986 12.9654 54.5736 13.0793 54.7764 13.2821C54.9791 13.4848 55.093 13.7598 55.093 14.0465C55.093 14.3332 54.9791 14.6082 54.7764 14.8109C54.5736 15.0137 54.2986 15.1276 54.0119 15.1276C53.8498 15.1276 50.0627 15.1827 49.5503 18.1751C49.5077 18.4253 49.3784 18.6525 49.1851 18.817C48.9918 18.9814 48.7468 19.0726 48.493 19.0746Z" fill="black" stroke="black"/>
<path d="M62.9256 9.79135C62.6707 9.79119 62.424 9.70095 62.2292 9.53656C62.0343 9.37218 61.9038 9.14423 61.8608 8.89297C61.344 5.87675 57.4478 5.84432 57.4024 5.84432C57.1156 5.84432 56.8407 5.73042 56.6379 5.52768C56.4352 5.32493 56.3213 5.04996 56.3213 4.76324C56.3213 4.47652 56.4352 4.20154 56.6379 3.9988C56.8407 3.79606 57.1156 3.68216 57.4024 3.68216H57.4056C58.4432 3.67439 59.4707 3.88591 60.4208 4.30286C61.371 4.71981 62.2223 5.33277 62.9191 6.10162C63.6159 5.33272 64.4672 4.71971 65.4174 4.30276C66.3675 3.88581 67.3951 3.67432 68.4326 3.68216H68.4391C68.7258 3.68216 69.0008 3.79606 69.2036 3.9988C69.4063 4.20154 69.5202 4.47652 69.5202 4.76324C69.5202 5.04996 69.4063 5.32493 69.2036 5.52768C69.0008 5.73042 68.7258 5.84432 68.4391 5.84432C68.278 5.84432 64.491 5.89945 63.9775 8.89297C63.9348 9.14205 63.8062 9.3683 63.6141 9.53242C63.4219 9.69654 63.1783 9.78815 62.9256 9.79135Z" fill="black" stroke="black"/>
<path d="M70.1415 24.2227C69.8866 24.2225 69.6399 24.1323 69.4451 23.9679C69.2502 23.8035 69.1198 23.5756 69.0767 23.3243C68.5599 20.3092 64.6626 20.2768 64.6172 20.2768C64.3305 20.2768 64.0555 20.1629 63.8528 19.9601C63.65 19.7574 63.5361 19.4824 63.5361 19.1957C63.5361 18.909 63.65 18.634 63.8528 18.4312C64.0555 18.2285 64.3305 18.1146 64.6172 18.1146H64.6237C65.6613 18.1067 66.6889 18.3182 67.639 18.7351C68.5892 19.1521 69.4405 19.7651 70.1372 20.5341C70.8339 19.7651 71.6852 19.1521 72.6354 18.7351C73.5856 18.3182 74.6131 18.1067 75.6507 18.1146H75.6583C75.945 18.1146 76.22 18.2285 76.4227 18.4312C76.6255 18.634 76.7394 18.909 76.7394 19.1957C76.7394 19.4824 76.6255 19.7574 76.4227 19.9601C76.22 20.1629 75.945 20.2768 75.6583 20.2768C75.4972 20.2768 71.7102 20.3319 71.1967 23.3243C71.1539 23.5739 71.0248 23.8006 70.832 23.9648C70.6391 24.129 70.3948 24.2203 70.1415 24.2227Z" fill="black" stroke="black"/>
</svg>
